<svg width="512" height="512" viewBox="0 0 512 512" fill="none" xmlns="http://www.w3.org/2000/svg">
<rect width="512" height="512" rx="200" fill="#15C39A"/>
<path d="M188.575 404.9H152.35L148.325 280.125C130.883 233.167 130.615 147.3 269.075 179.5C407.535 211.7 377.75 329.767 345.55 384.775L337.5 404.9L204.675 404.9H188.575Z" fill="#15C39A"/>
<path d="M264.406 286.485C264.406 289.705 267.062 292.442 270.363 292.442H281.552C284.772 292.442 287.509 289.785 287.509 286.485V275.295C287.509 272.075 284.853 269.338 281.552 269.338H270.363C267.143 269.338 264.406 271.995 264.406 275.295V286.485Z" fill="white"/>
<path d="M244.04 292.281C247.26 292.281 249.997 289.624 249.997 286.324V275.134C249.997 271.914 247.34 269.177 244.04 269.177H232.85C229.63 269.177 226.893 271.834 226.893 275.134V286.324C226.893 289.544 229.55 292.281 232.85 292.281H244.04Z" fill="white"/>
<path d="M270.283 306.69C267.063 306.69 264.326 309.346 264.326 312.647V323.675C264.326 326.895 266.982 329.632 270.283 329.632H281.472C284.692 329.632 287.429 326.976 287.429 323.675V312.647C287.429 309.427 284.773 306.69 281.472 306.69H270.283Z" fill="white"/>
<path d="M249.916 312.647C249.916 309.427 247.26 306.69 243.959 306.69H232.85C229.63 306.69 226.893 309.346 226.893 312.647V323.675C226.893 326.895 229.55 329.632 232.85 329.632H244.04C247.26 329.632 249.997 326.976 249.997 323.675V312.647H249.916Z" fill="white"/>
<path d="M415.331 237.367L265.14 101.967C260.635 98.0109 253.395 98.0109 248.97 101.967L203.921 142.74V129.015C203.921 124.493 200.301 120.86 195.796 120.86H180.672C176.167 120.86 172.547 124.493 172.547 129.015V170.838L98.6982 237.286C94.1932 241.242 95.4804 244.552 101.433 244.552H115.511C121.464 244.552 126.452 249.477 126.452 255.533V393.839C126.452 399.813 131.359 404.819 137.392 404.819H160.078V292.431C160.078 238.658 203.438 194.979 257.095 194.979C310.591 194.979 354.112 238.497 354.112 292.431C354.112 346.203 310.752 389.721 257.095 389.883C237.145 389.883 218.884 381.97 218.884 381.97L183.407 404.9H376.717C382.67 404.9 387.658 399.975 387.658 393.919V255.452C387.658 249.477 392.565 244.472 398.598 244.472H412.676C418.549 244.633 419.756 241.242 415.331 237.367Z" fill="white"/>
</svg>
