<?xml version="1.0" encoding="UTF-8"?>
<!DOCTYPE svg PUBLIC "-//W3C//DTD SVG 1.1//EN" "http://www.w3.org/Graphics/SVG/1.1/DTD/svg11.dtd">
<!-- Creator: CorelDRAW 2021 (64-Bit) -->
<svg xmlns="http://www.w3.org/2000/svg" xml:space="preserve" width="2285px" height="584px" version="1.1" style="shape-rendering:geometricPrecision; text-rendering:geometricPrecision; image-rendering:optimizeQuality; fill-rule:evenodd; clip-rule:evenodd"
viewBox="0 0 2285 584"
 xmlns:xlink="http://www.w3.org/1999/xlink"
 xmlns:xodm="http://www.corel.com/coreldraw/odm/2003">
 <defs>
  <style type="text/css">
   <![CDATA[
    .str0 {stroke:#3B589E;stroke-width:2.36;stroke-linecap:round;stroke-linejoin:round;stroke-miterlimit:22.9256}
    .fil1 {fill:#FEFEFE}
    .fil0 {fill:#3B589E}
    .fil2 {fill:#3B589E;fill-rule:nonzero}
   ]]>
  </style>
 </defs>
 <g id="Layer_x0020_1">
  <metadata id="CorelCorpID_0Corel-Layer"/>
  <g id="_2428186323936">
   <rect className="fil0" x="95.73" y="58.25" width="413.62" height="467.49" rx="11.44" ry="51.19"/>
   <path className="fil1" d="M194.47 208.79l111.75 0.71c5,35.91 6.46,129.17 -5.91,156.07 -42.38,11.61 -63.94,-15.42 -87.32,-30.82 -8.67,6.57 -40.65,55.36 -48.56,67.2 40.13,62.87 170.75,84.38 226.24,19.41 32.1,-37.59 27.23,-78.17 27.24,-134.66l-0.43 -163.5 -223.23 0.4 0.22 85.19z"/>
   <path className="fil2 str0" d="M599.9 164.86l1553.06 0c9.68,0 18.51,3.97 24.91,10.37l0.04 0.04c6.39,6.4 10.36,15.22 10.36,24.9l0 211.72c0,9.69 -3.97,18.51 -10.37,24.92l-0.04 0.04c-6.41,6.39 -15.22,10.35 -24.9,10.35l-1553.06 0c-9.69,0 -18.51,-3.97 -24.92,-10.36l-0.04 -0.04c-6.38,-6.41 -10.35,-15.23 -10.35,-24.91l0 -211.72c0,-9.69 3.97,-18.51 10.37,-24.92l0.04 -0.04c6.41,-6.39 15.22,-10.35 24.9,-10.35zm1553.06 13.41l-1553.06 0c-6.03,0 -11.51,2.46 -15.46,6.41l-0.02 0.03c-3.96,3.95 -6.42,9.43 -6.42,15.46l0 211.72c0,6.04 2.46,11.51 6.42,15.46l0.02 0.03c3.95,3.95 9.43,6.41 15.46,6.41l1553.06 0c6.03,0 11.5,-2.46 15.46,-6.41l0.02 -0.03c3.96,-3.95 6.41,-9.42 6.41,-15.46l0 -211.72c0,-6.03 -2.45,-11.51 -6.41,-15.46l-0.02 -0.03c-3.96,-3.95 -9.43,-6.41 -15.46,-6.41z"/>
   <path className="fil2" d="M735.08 364.41l-33.2 0 0 -15.21 -0.46 0c-1.23,2.15 -2.8,4.3 -4.73,6.45 -1.92,2.15 -4.26,4.08 -7.03,5.76 -2.76,1.7 -5.91,3.08 -9.45,4.15 -3.53,1.08 -7.37,1.62 -11.52,1.62 -8.76,0 -15.87,-1.35 -21.33,-4.04 -5.45,-2.69 -9.68,-6.41 -12.68,-11.18 -2.99,-4.76 -4.99,-10.37 -5.99,-16.83 -1,-6.45 -1.5,-13.44 -1.5,-20.97l0 -61.79 34.58 0 0 54.87c0,3.23 0.12,6.57 0.35,10.03 0.23,3.46 0.92,6.65 2.07,9.57 1.15,2.92 2.92,5.3 5.3,7.14 2.38,1.85 5.8,2.77 10.26,2.77 4.46,0 8.07,-0.81 10.84,-2.42 2.76,-1.62 4.88,-3.77 6.34,-6.46 1.46,-2.69 2.42,-5.72 2.88,-9.1 0.46,-3.38 0.69,-6.92 0.69,-10.61l0 -55.79 34.58 0 0 112.04zm87.83 -79.07c-5.07,-6.3 -11.76,-9.45 -20.06,-9.45 -2.92,0 -5.76,0.69 -8.53,2.07 -2.76,1.39 -4.15,3.77 -4.15,7.15 0,2.77 1.43,4.8 4.27,6.11 2.84,1.31 6.45,2.46 10.83,3.46 4.38,1 9.07,2.07 14.07,3.22 4.99,1.16 9.68,2.96 14.06,5.42 4.38,2.46 7.99,5.8 10.83,10.03 2.85,4.23 4.27,9.87 4.27,16.94 0,7.23 -1.58,13.18 -4.73,17.87 -3.15,4.69 -7.18,8.45 -12.1,11.29 -4.92,2.85 -10.45,4.85 -16.6,6 -6.15,1.15 -12.22,1.73 -18.21,1.73 -7.84,0 -15.75,-1.12 -23.75,-3.34 -7.99,-2.23 -14.75,-6.19 -20.28,-11.88l20.98 -23.28c3.22,4 6.8,7.03 10.72,9.1 3.92,2.08 8.49,3.12 13.71,3.12 4,0 7.61,-0.58 10.84,-1.73 3.22,-1.15 4.84,-3.27 4.84,-6.34 0,-2.92 -1.42,-5.11 -4.27,-6.57 -2.84,-1.46 -6.45,-2.69 -10.83,-3.69 -4.38,-1 -9.07,-2.07 -14.06,-3.23 -5,-1.15 -9.69,-2.88 -14.07,-5.18 -4.38,-2.31 -7.99,-5.57 -10.83,-9.8 -2.84,-4.23 -4.27,-9.88 -4.27,-16.94 0,-6.61 1.35,-12.3 4.04,-17.06 2.69,-4.77 6.22,-8.69 10.6,-11.76 4.38,-3.08 9.42,-5.34 15.1,-6.8 5.69,-1.46 11.45,-2.19 17.29,-2.19 7.38,0 14.83,1.07 22.36,3.23 7.53,2.15 13.91,5.99 19.14,11.52l-21.21 20.98zm119.64 -5.3l-30.43 0 0 37.34c0,3.08 0.16,5.88 0.47,8.42 0.3,2.53 0.99,4.72 2.07,6.57 1.08,1.84 2.73,3.26 4.96,4.26 2.23,1 5.18,1.5 8.87,1.5 1.84,0 4.27,-0.19 7.26,-0.57 3,-0.39 5.27,-1.27 6.8,-2.66l0 28.82c-3.84,1.38 -7.83,2.31 -11.98,2.77 -4.15,0.46 -8.23,0.69 -12.22,0.69 -5.84,0 -11.22,-0.62 -16.14,-1.85 -4.92,-1.23 -9.22,-3.19 -12.91,-5.88 -3.69,-2.68 -6.57,-6.18 -8.64,-10.48 -2.08,-4.31 -3.12,-9.53 -3.12,-15.68l0 -53.25 -22.13 0 0 -27.67 22.13 0 0 -33.19 34.58 0 0 33.19 30.43 0 0 27.67zm20.75 -27.67l31.81 0 0 14.76 0.47 0c1.38,-2 3.18,-4.04 5.41,-6.11 2.23,-2.08 4.84,-3.96 7.84,-5.65 3,-1.69 6.26,-3.07 9.8,-4.15 3.53,-1.07 7.3,-1.61 11.29,-1.61 8.3,0 15.83,1.42 22.6,4.26 6.76,2.85 12.56,6.84 17.4,11.99 4.84,5.15 8.57,11.26 11.18,18.33 2.61,7.07 3.92,14.83 3.92,23.28 0,7.84 -1.19,15.33 -3.57,22.48 -2.38,7.14 -5.77,13.48 -10.15,19.02 -4.38,5.53 -9.72,9.95 -16.02,13.25 -6.3,3.31 -13.45,4.96 -21.44,4.96 -7.22,0 -13.94,-1.12 -20.17,-3.34 -6.22,-2.23 -11.33,-6.04 -15.33,-11.42l-0.46 0 0 64.55 -34.58 0 0 -164.6zm31.81 56.02c0,8.46 2.42,15.29 7.27,20.52 4.84,5.23 11.64,7.84 20.4,7.84 8.76,0 15.56,-2.61 20.4,-7.84 4.84,-5.23 7.26,-12.06 7.26,-20.52 0,-8.45 -2.42,-15.29 -7.26,-20.51 -4.84,-5.23 -11.64,-7.84 -20.4,-7.84 -8.76,0 -15.56,2.61 -20.4,7.84 -4.85,5.22 -7.27,12.06 -7.27,20.51zm180.51 41.96l-0.46 0c-3.85,5.99 -8.96,10.3 -15.33,12.91 -6.38,2.61 -13.11,3.92 -20.18,3.92 -5.22,0 -10.25,-0.73 -15.09,-2.19 -4.84,-1.46 -9.11,-3.65 -12.8,-6.57 -3.69,-2.92 -6.61,-6.53 -8.76,-10.84 -2.15,-4.3 -3.23,-9.29 -3.23,-14.98 0,-6.46 1.2,-11.91 3.58,-16.37 2.38,-4.46 5.61,-8.14 9.68,-11.06 4.07,-2.92 8.72,-5.19 13.95,-6.8 5.22,-1.62 10.64,-2.81 16.25,-3.58 5.61,-0.77 11.22,-1.23 16.83,-1.38 5.61,-0.16 10.79,-0.23 15.56,-0.23 0,-6.15 -2.19,-11.03 -6.57,-14.64 -4.38,-3.61 -9.57,-5.42 -15.56,-5.42 -5.69,0 -10.88,1.19 -15.56,3.58 -4.69,2.38 -8.88,5.64 -12.57,9.79l-18.44 -18.9c6.45,-5.99 13.98,-10.49 22.59,-13.49 8.61,-2.99 17.52,-4.49 26.74,-4.49 10.15,0 18.48,1.27 25.02,3.8 6.53,2.54 11.75,6.26 15.67,11.18 3.92,4.92 6.65,10.95 8.19,18.1 1.53,7.15 2.3,15.41 2.3,24.78l0 56.94 -31.81 0 0 -14.06zm-8.53 -35.04c-2.61,0 -5.88,0.11 -9.8,0.35 -3.92,0.23 -7.68,0.88 -11.3,1.95 -3.61,1.08 -6.68,2.69 -9.22,4.85 -2.53,2.15 -3.8,5.14 -3.8,8.99 0,4.15 1.77,7.22 5.3,9.22 3.54,2 7.23,2.99 11.07,2.99 3.38,0 6.64,-0.46 9.79,-1.38 3.16,-0.92 5.96,-2.23 8.42,-3.92 2.46,-1.69 4.42,-3.84 5.88,-6.45 1.46,-2.61 2.19,-5.69 2.19,-9.22l0 -7.38 -8.53 0zm126.56 67.31c-2.31,6 -4.53,11.3 -6.69,15.91 -2.15,4.61 -4.88,8.49 -8.18,11.64 -3.3,3.15 -7.49,5.53 -12.56,7.15 -5.08,1.61 -11.76,2.42 -20.06,2.42 -8.91,0 -17.52,-1.38 -25.82,-4.15l4.61 -28.36c5.23,2.31 10.6,3.46 16.14,3.46 3.84,0 6.99,-0.42 9.45,-1.27 2.46,-0.84 4.49,-2.07 6.11,-3.68 1.61,-1.62 2.96,-3.58 4.03,-5.88 1.08,-2.31 2.23,-5 3.46,-8.07l2.54 -6.46 -49.11 -112.96 37.35 0 28.82 74 0.46 0 24.66 -74 35.5 0 -50.71 130.25zm59.47 -74.23c0,-8.91 1.62,-16.98 4.85,-24.2 3.22,-7.23 7.64,-13.41 13.25,-18.56 5.61,-5.15 12.22,-9.11 19.83,-11.87 7.6,-2.77 15.71,-4.15 24.32,-4.15 8.6,0 16.71,1.38 24.32,4.15 7.61,2.76 14.21,6.72 19.82,11.87 5.61,5.15 10.03,11.33 13.26,18.56 3.23,7.22 4.84,15.29 4.84,24.2 0,8.92 -1.61,16.99 -4.84,24.21 -3.23,7.22 -7.65,13.41 -13.26,18.56 -5.61,5.14 -12.21,9.1 -19.82,11.87 -7.61,2.76 -15.72,4.15 -24.32,4.15 -8.61,0 -16.72,-1.39 -24.32,-4.15 -7.61,-2.77 -14.22,-6.73 -19.83,-11.87 -5.61,-5.15 -10.03,-11.34 -13.25,-18.56 -3.23,-7.22 -4.85,-15.29 -4.85,-24.21zm34.58 0c0,8.46 2.42,15.29 7.27,20.52 4.84,5.23 11.64,7.84 20.4,7.84 8.76,0 15.56,-2.61 20.4,-7.84 4.84,-5.23 7.26,-12.06 7.26,-20.52 0,-8.45 -2.42,-15.29 -7.26,-20.51 -4.84,-5.23 -11.64,-7.84 -20.4,-7.84 -8.76,0 -15.56,2.61 -20.4,7.84 -4.85,5.22 -7.27,12.06 -7.27,20.51zm96.83 -56.02l36.88 0 22.82 70.32 0.46 0 19.14 -70.32 37.8 0 20.75 70.32 0.46 0 20.98 -70.32 35.04 0 -39.88 112.04 -34.12 0 -23.28 -74.46 -0.46 0 -20.75 74.46 -34.81 0 -41.03 -112.04zm205.4 0l33.19 0 0 15.22 0.47 0c1.07,-2.15 2.61,-4.3 4.6,-6.46 2,-2.15 4.38,-4.07 7.15,-5.76 2.77,-1.69 5.92,-3.07 9.45,-4.15 3.54,-1.07 7.38,-1.61 11.53,-1.61 8.76,0 15.83,1.34 21.21,4.03 5.38,2.69 9.57,6.42 12.56,11.18 3,4.77 5.04,10.38 6.11,16.83 1.08,6.46 1.62,13.45 1.62,20.98l0 61.78 -34.59 0 0 -54.86c0,-3.23 -0.11,-6.57 -0.34,-10.03 -0.23,-3.46 -0.92,-6.65 -2.08,-9.57 -1.15,-2.92 -2.92,-5.3 -5.3,-7.15 -2.38,-1.84 -5.8,-2.76 -10.26,-2.76 -4.45,0 -8.06,0.81 -10.83,2.42 -2.77,1.61 -4.88,3.76 -6.34,6.45 -1.46,2.69 -2.42,5.73 -2.88,9.11 -0.46,3.38 -0.69,6.92 -0.69,10.6l0 55.79 -34.58 0 0 -112.04zm238.36 92.68c-5.53,7.07 -12.52,12.52 -20.97,16.36 -8.46,3.85 -17.22,5.77 -26.28,5.77 -8.61,0 -16.72,-1.39 -24.33,-4.15 -7.6,-2.77 -14.21,-6.73 -19.82,-11.87 -5.61,-5.15 -10.03,-11.34 -13.26,-18.56 -3.22,-7.22 -4.84,-15.29 -4.84,-24.21 0,-8.91 1.62,-16.98 4.84,-24.2 3.23,-7.23 7.65,-13.41 13.26,-18.56 5.61,-5.15 12.22,-9.11 19.82,-11.87 7.61,-2.77 15.72,-4.15 24.33,-4.15 7.99,0 15.25,1.38 21.78,4.15 6.53,2.76 12.06,6.72 16.6,11.87 4.53,5.15 8.03,11.33 10.49,18.56 2.46,7.22 3.69,15.29 3.69,24.2l0 10.84 -80.23 0c1.38,6.61 4.38,11.87 8.99,15.79 4.61,3.92 10.3,5.88 17.06,5.88 5.69,0 10.49,-1.27 14.41,-3.81 3.92,-2.53 7.34,-5.8 10.26,-9.79l24.2 17.75zm-29.27 -49.34c0.15,-5.84 -1.77,-10.83 -5.77,-14.98 -3.99,-4.15 -9.14,-6.23 -15.44,-6.23 -3.84,0 -7.23,0.62 -10.15,1.85 -2.92,1.23 -5.41,2.8 -7.49,4.73 -2.07,1.92 -3.69,4.14 -4.84,6.68 -1.15,2.54 -1.8,5.19 -1.96,7.95l45.65 0zm55.55 -43.34l34.58 0 0 17.99 0.46 0c3.69,-6.92 8.07,-12.11 13.14,-15.57 5.07,-3.45 11.45,-5.18 19.14,-5.18 2,0 3.99,0.08 5.99,0.23 2,0.15 3.84,0.46 5.53,0.92l0 31.58c-2.45,-0.77 -4.88,-1.34 -7.26,-1.73 -2.38,-0.38 -4.88,-0.57 -7.49,-0.57 -6.61,0 -11.83,0.92 -15.68,2.76 -3.84,1.85 -6.8,4.42 -8.87,7.73 -2.08,3.3 -3.42,7.26 -4.04,11.87 -0.61,4.61 -0.92,9.68 -0.92,15.21l0 46.8 -34.58 0 0 -112.04zm157.22 32.97c-5.07,-6.3 -11.75,-9.45 -20.05,-9.45 -2.92,0 -5.77,0.69 -8.53,2.07 -2.77,1.39 -4.15,3.77 -4.15,7.15 0,2.77 1.42,4.8 4.26,6.11 2.85,1.31 6.46,2.46 10.84,3.46 4.38,1 9.07,2.07 14.06,3.22 5,1.16 9.68,2.96 14.06,5.42 4.38,2.46 7.99,5.8 10.84,10.03 2.84,4.23 4.26,9.87 4.26,16.94 0,7.23 -1.57,13.18 -4.72,17.87 -3.15,4.69 -7.19,8.45 -12.11,11.29 -4.91,2.85 -10.45,4.85 -16.59,6 -6.15,1.15 -12.22,1.73 -18.22,1.73 -7.83,0 -15.75,-1.12 -23.74,-3.34 -7.99,-2.23 -14.75,-6.19 -20.29,-11.88l20.98 -23.28c3.23,4 6.8,7.03 10.72,9.1 3.92,2.08 8.49,3.12 13.72,3.12 3.99,0 7.6,-0.58 10.83,-1.73 3.23,-1.15 4.84,-3.27 4.84,-6.34 0,-2.92 -1.42,-5.11 -4.26,-6.57 -2.84,-1.46 -6.46,-2.69 -10.84,-3.69 -4.38,-1 -9.06,-2.07 -14.06,-3.23 -4.99,-1.15 -9.68,-2.88 -14.06,-5.18 -4.38,-2.31 -7.99,-5.57 -10.84,-9.8 -2.84,-4.23 -4.26,-9.88 -4.26,-16.94 0,-6.61 1.34,-12.3 4.03,-17.06 2.69,-4.77 6.23,-8.69 10.61,-11.76 4.38,-3.08 9.41,-5.34 15.1,-6.8 5.68,-1.46 11.45,-2.19 17.29,-2.19 7.38,0 14.83,1.07 22.36,3.23 7.53,2.15 13.91,5.99 19.13,11.52l-21.21 20.98z"/>
  </g>
 </g>
</svg>
