<?xml version="1.0" encoding="UTF-8"?>
<!DOCTYPE svg PUBLIC "-//W3C//DTD SVG 1.1//EN" "http://www.w3.org/Graphics/SVG/1.1/DTD/svg11.dtd">
<!-- Creator: CorelDRAW 2021 (64-Bit) -->
<svg xmlns="http://www.w3.org/2000/svg" xml:space="preserve" width="2285px" height="584px" version="1.1" style="shape-rendering:geometricPrecision; text-rendering:geometricPrecision; image-rendering:optimizeQuality; fill-rule:evenodd; clip-rule:evenodd"
viewBox="0 0 2285 584"
 xmlns:xlink="http://www.w3.org/1999/xlink"
 xmlns:xodm="http://www.corel.com/coreldraw/odm/2003">
 <defs>
  <style type="text/css">
   <![CDATA[
    .str0 {stroke:#2B2A29;stroke-width:2.36;stroke-linecap:round;stroke-linejoin:round;stroke-miterlimit:22.9256}
    .str1 {stroke:#FFFBDB;stroke-width:2.36;stroke-linecap:round;stroke-linejoin:round;stroke-miterlimit:22.9256}
    .fil1 {fill:#FEFEFE}
    .fil0 {fill:#3B589E}
    .fil2 {fill:#FEFEFE;fill-rule:nonzero}
   ]]>
  </style>
 </defs>
 <g id="Layer_x0020_1">
  <metadata id="CorelCorpID_0Corel-Layer"/>
  <g id="_2428193952944">
   <rect className="fil0 str0" x="84.21" y="24.74" width="2115.59" height="534.52"/>
   <path className="fil1" d="M257.96 203.27l119.15 0.76c5.33,38.29 6.89,137.73 -6.3,166.41 -45.19,12.38 -68.18,-16.44 -93.11,-32.86 -9.24,7 -43.34,59.03 -51.78,71.65 42.79,67.04 182.07,89.98 241.23,20.7 34.23,-40.08 29.04,-83.35 29.05,-143.58l-0.46 -174.34 -238.02 0.42 0.24 90.84z"/>
   <path className="fil2 str1" d="M577.86 161.22l1447.31 0c9.03,0 17.25,3.7 23.23,9.66l0.03 0.04c5.96,5.97 9.65,14.19 9.65,23.21l0 197.31c0,9.02 -3.7,17.25 -9.66,23.22l-0.04 0.04c-5.97,5.95 -14.18,9.64 -23.21,9.64l-1447.31 0c-9.03,0 -17.25,-3.7 -23.22,-9.66l-0.04 -0.04c-5.95,-5.97 -9.65,-14.18 -9.65,-23.2l0 -197.31c0,-9.03 3.7,-17.25 9.66,-23.22l0.04 -0.04c5.97,-5.95 14.19,-9.65 23.21,-9.65zm1447.31 12.5l-1447.31 0c-5.62,0 -10.72,2.29 -14.41,5.98l-0.02 0.02c-3.69,3.69 -5.98,8.79 -5.98,14.41l0 197.31c0,5.62 2.29,10.72 5.98,14.4l0.02 0.03c3.69,3.68 8.79,5.97 14.41,5.97l1447.31 0c5.63,0 10.73,-2.29 14.41,-5.97l0.03 -0.03c3.68,-3.68 5.97,-8.78 5.97,-14.4l0 -197.31c0,-5.62 -2.29,-10.72 -5.97,-14.41l-0.03 -0.02c-3.68,-3.69 -8.78,-5.98 -14.41,-5.98z"/>
   <path className="fil2" d="M705.01 340.1l-30.93 0 0 -14.18 -0.43 0c-1.15,2.01 -2.62,4.01 -4.41,6.02 -1.79,2 -3.97,3.79 -6.55,5.37 -2.58,1.57 -5.51,2.86 -8.81,3.87 -3.29,1 -6.87,1.5 -10.74,1.5 -8.16,0 -14.79,-1.25 -19.87,-3.76 -5.09,-2.51 -9.03,-5.98 -11.82,-10.42 -2.79,-4.44 -4.65,-9.67 -5.58,-15.68 -0.93,-6.02 -1.4,-12.53 -1.4,-19.55l0 -57.58 32.22 0 0 51.13c0,3.01 0.11,6.13 0.33,9.35 0.21,3.22 0.86,6.19 1.93,8.91 1.07,2.73 2.72,4.95 4.94,6.66 2.22,1.72 5.41,2.58 9.56,2.58 4.16,0 7.52,-0.75 10.1,-2.25 2.58,-1.51 4.55,-3.51 5.91,-6.02 1.36,-2.51 2.25,-5.33 2.68,-8.49 0.43,-3.15 0.65,-6.44 0.65,-9.88l0 -51.99 32.22 0 0 104.41zm81.85 -73.69c-4.72,-5.87 -10.95,-8.8 -18.69,-8.8 -2.72,0 -5.37,0.64 -7.95,1.93 -2.57,1.29 -3.86,3.51 -3.86,6.66 0,2.58 1.32,4.48 3.97,5.69 2.65,1.22 6.02,2.29 10.1,3.23 4.08,0.93 8.45,1.93 13.1,3 4.66,1.08 9.03,2.76 13.11,5.05 4.08,2.29 7.45,5.41 10.1,9.35 2.65,3.94 3.97,9.2 3.97,15.79 0,6.73 -1.47,12.28 -4.4,16.65 -2.94,4.36 -6.7,7.87 -11.28,10.52 -4.59,2.65 -9.74,4.51 -15.47,5.59 -5.73,1.07 -11.39,1.61 -16.97,1.61 -7.31,0 -14.68,-1.04 -22.13,-3.12 -7.45,-2.07 -13.75,-5.76 -18.91,-11.06l19.55 -21.7c3.01,3.73 6.34,6.55 9.99,8.49 3.66,1.93 7.92,2.9 12.79,2.9 3.72,0 7.09,-0.54 10.09,-1.61 3.01,-1.08 4.52,-3.05 4.52,-5.91 0,-2.72 -1.33,-4.76 -3.98,-6.12 -2.65,-1.36 -6.01,-2.51 -10.1,-3.44 -4.08,-0.93 -8.45,-1.93 -13.1,-3.01 -4.66,-1.07 -9.02,-2.68 -13.11,-4.83 -4.08,-2.15 -7.44,-5.19 -10.09,-9.13 -2.65,-3.94 -3.98,-9.2 -3.98,-15.79 0,-6.16 1.26,-11.46 3.76,-15.9 2.51,-4.44 5.8,-8.09 9.88,-10.96 4.09,-2.86 8.78,-4.97 14.08,-6.33 5.3,-1.36 10.67,-2.04 16.11,-2.04 6.87,0 13.82,1 20.84,3 7.01,2.01 12.96,5.59 17.83,10.74l-19.77 19.55zm111.5 -4.94l-28.36 0 0 34.81c0,2.86 0.15,5.47 0.43,7.84 0.29,2.36 0.93,4.4 1.94,6.12 1,1.72 2.54,3.04 4.62,3.97 2.07,0.94 4.83,1.4 8.27,1.4 1.72,0 3.97,-0.18 6.76,-0.54 2.8,-0.35 4.91,-1.18 6.34,-2.47l0 26.86c-3.58,1.29 -7.3,2.15 -11.17,2.58 -3.87,0.43 -7.66,0.64 -11.39,0.64 -5.44,0 -10.45,-0.57 -15.03,-1.72 -4.59,-1.14 -8.6,-2.97 -12.04,-5.48 -3.43,-2.5 -6.12,-5.76 -8.05,-9.77 -1.93,-4.01 -2.9,-8.88 -2.9,-14.61l0 -49.63 -20.63 0 0 -25.78 20.63 0 0 -30.93 32.22 0 0 30.93 28.36 0 0 25.78zm19.34 -25.78l29.64 0 0 13.75 0.43 0c1.29,-1.86 2.98,-3.76 5.05,-5.69 2.08,-1.93 4.51,-3.69 7.31,-5.26 2.79,-1.58 5.83,-2.87 9.13,-3.87 3.29,-1 6.8,-1.5 10.52,-1.5 7.74,0 14.75,1.32 21.06,3.97 6.3,2.65 11.71,6.37 16.22,11.17 4.51,4.8 7.98,10.49 10.42,17.08 2.43,6.59 3.65,13.82 3.65,21.7 0,7.3 -1.11,14.28 -3.33,20.94 -2.22,6.66 -5.37,12.57 -9.45,17.73 -4.09,5.15 -9.06,9.27 -14.93,12.35 -5.88,3.08 -12.54,4.62 -19.98,4.62 -6.74,0 -13,-1.04 -18.8,-3.12 -5.8,-2.07 -10.56,-5.62 -14.29,-10.63l-0.43 0 0 60.15 -32.22 0 0 -153.39zm29.64 52.21c0,7.88 2.26,14.25 6.77,19.12 4.51,4.87 10.85,7.3 19.01,7.3 8.17,0 14.51,-2.43 19.02,-7.3 4.51,-4.87 6.76,-11.24 6.76,-19.12 0,-7.88 -2.25,-14.25 -6.76,-19.12 -4.51,-4.87 -10.85,-7.31 -19.02,-7.31 -8.16,0 -14.5,2.44 -19.01,7.31 -4.51,4.87 -6.77,11.24 -6.77,19.12zm168.22 39.1l-0.43 0c-3.58,5.58 -8.34,9.59 -14.29,12.03 -5.94,2.43 -12.21,3.65 -18.8,3.65 -4.87,0 -9.56,-0.68 -14.07,-2.04 -4.51,-1.36 -8.48,-3.4 -11.92,-6.12 -3.44,-2.72 -6.16,-6.09 -8.16,-10.1 -2.01,-4.01 -3.01,-8.67 -3.01,-13.96 0,-6.02 1.11,-11.1 3.33,-15.26 2.22,-4.15 5.23,-7.59 9.02,-10.31 3.8,-2.72 8.13,-4.83 13,-6.34 4.87,-1.5 9.92,-2.61 15.14,-3.33 5.23,-0.71 10.46,-1.14 15.69,-1.29 5.23,-0.14 10.06,-0.21 14.5,-0.21 0,-5.73 -2.04,-10.28 -6.12,-13.64 -4.09,-3.37 -8.92,-5.05 -14.51,-5.05 -5.29,0 -10.13,1.11 -14.5,3.33 -4.36,2.22 -8.27,5.26 -11.71,9.13l-17.18 -17.62c6.01,-5.58 13.03,-9.77 21.05,-12.57 8.02,-2.79 16.33,-4.18 24.92,-4.18 9.46,0 17.22,1.18 23.31,3.54 6.09,2.36 10.96,5.84 14.61,10.42 3.65,4.58 6.19,10.2 7.63,16.86 1.43,6.66 2.14,14.36 2.14,23.1l0 53.06 -29.64 0 0 -13.1zm-7.95 -32.66c-2.44,0 -5.48,0.11 -9.13,0.33 -3.65,0.21 -7.16,0.82 -10.53,1.82 -3.36,1 -6.23,2.51 -8.59,4.51 -2.36,2.01 -3.55,4.8 -3.55,8.38 0,3.87 1.65,6.73 4.95,8.59 3.29,1.87 6.73,2.8 10.31,2.8 3.15,0 6.19,-0.43 9.13,-1.29 2.93,-0.86 5.55,-2.08 7.84,-3.65 2.29,-1.58 4.12,-3.58 5.48,-6.02 1.36,-2.43 2.04,-5.3 2.04,-8.59l0 -6.88 -7.95 0zm117.94 62.73c-2.15,5.59 -4.22,10.53 -6.23,14.83 -2,4.29 -4.54,7.91 -7.62,10.85 -3.08,2.93 -6.99,5.15 -11.71,6.66 -4.73,1.5 -10.96,2.25 -18.69,2.25 -8.31,0 -16.33,-1.29 -24.06,-3.86l4.29 -26.43c4.87,2.15 9.88,3.22 15.04,3.22 3.58,0 6.52,-0.39 8.81,-1.18 2.29,-0.79 4.19,-1.93 5.69,-3.44 1.51,-1.5 2.76,-3.33 3.76,-5.47 1,-2.15 2.08,-4.66 3.22,-7.52l2.37 -6.02 -45.76 -105.27 34.8 0 26.86 68.96 0.42 0 22.99 -68.96 33.09 0 -47.27 121.38zm55.43 -69.17c0,-8.31 1.5,-15.83 4.51,-22.56 3.01,-6.73 7.13,-12.5 12.35,-17.29 5.23,-4.8 11.39,-8.49 18.48,-11.07 7.09,-2.58 14.64,-3.86 22.66,-3.86 8.03,0 15.58,1.28 22.67,3.86 7.09,2.58 13.25,6.27 18.47,11.07 5.23,4.79 9.35,10.56 12.36,17.29 3.01,6.73 4.51,14.25 4.51,22.56 0,8.3 -1.5,15.82 -4.51,22.56 -3.01,6.73 -7.13,12.49 -12.36,17.29 -5.22,4.8 -11.38,8.49 -18.47,11.06 -7.09,2.58 -14.64,3.87 -22.67,3.87 -8.02,0 -15.57,-1.29 -22.66,-3.87 -7.09,-2.57 -13.25,-6.26 -18.48,-11.06 -5.22,-4.8 -9.34,-10.56 -12.35,-17.29 -3.01,-6.74 -4.51,-14.26 -4.51,-22.56zm32.22 0c0,7.88 2.26,14.25 6.77,19.12 4.51,4.87 10.85,7.3 19.01,7.3 8.17,0 14.51,-2.43 19.02,-7.3 4.51,-4.87 6.76,-11.24 6.76,-19.12 0,-7.88 -2.25,-14.25 -6.76,-19.12 -4.51,-4.87 -10.85,-7.31 -19.02,-7.31 -8.16,0 -14.5,2.44 -19.01,7.31 -4.51,4.87 -6.77,11.24 -6.77,19.12zm90.24 -52.21l34.37 0 21.27 65.53 0.43 0 17.83 -65.53 35.23 0 19.33 65.53 0.43 0 19.55 -65.53 32.66 0 -37.17 104.41 -31.79 0 -21.7 -69.39 -0.43 0 -19.34 69.39 -32.44 0 -38.23 -104.41zm191.41 0l30.94 0 0 14.18 0.43 0c1,-2 2.43,-4.01 4.29,-6.01 1.87,-2.01 4.08,-3.8 6.66,-5.37 2.58,-1.58 5.52,-2.87 8.81,-3.87 3.3,-1 6.88,-1.5 10.74,-1.5 8.17,0 14.75,1.25 19.77,3.75 5.01,2.51 8.91,5.98 11.71,10.42 2.79,4.44 4.69,9.67 5.69,15.69 1,6.01 1.5,12.53 1.5,19.55l0 57.57 -32.22 0 0 -51.13c0,-3.01 -0.11,-6.12 -0.32,-9.34 -0.22,-3.23 -0.86,-6.2 -1.94,-8.92 -1.07,-2.72 -2.72,-4.94 -4.94,-6.66 -2.22,-1.72 -5.41,-2.58 -9.56,-2.58 -4.15,0 -7.52,0.75 -10.1,2.26 -2.57,1.5 -4.54,3.51 -5.9,6.01 -1.37,2.51 -2.26,5.34 -2.69,8.49 -0.43,3.15 -0.64,6.45 -0.64,9.88l0 51.99 -32.23 0 0 -104.41zm222.14 86.37c-5.16,6.58 -11.67,11.67 -19.55,15.25 -7.88,3.58 -16.04,5.37 -24.49,5.37 -8.02,0 -15.58,-1.29 -22.67,-3.87 -7.09,-2.57 -13.25,-6.26 -18.47,-11.06 -5.23,-4.8 -9.35,-10.56 -12.36,-17.29 -3,-6.74 -4.51,-14.26 -4.51,-22.56 0,-8.31 1.51,-15.83 4.51,-22.56 3.01,-6.73 7.13,-12.5 12.36,-17.29 5.22,-4.8 11.38,-8.49 18.47,-11.07 7.09,-2.58 14.65,-3.86 22.67,-3.86 7.44,0 14.21,1.28 20.3,3.86 6.09,2.58 11.24,6.27 15.47,11.07 4.22,4.79 7.48,10.56 9.77,17.29 2.29,6.73 3.44,14.25 3.44,22.56l0 10.09 -74.76 0c1.29,6.16 4.08,11.07 8.38,14.72 4.29,3.65 9.59,5.48 15.89,5.48 5.3,0 9.78,-1.18 13.43,-3.55 3.65,-2.36 6.84,-5.4 9.56,-9.13l22.56 16.55zm-27.29 -45.98c0.15,-5.44 -1.64,-10.1 -5.37,-13.96 -3.72,-3.87 -8.52,-5.8 -14.39,-5.8 -3.58,0 -6.73,0.57 -9.45,1.72 -2.72,1.14 -5.05,2.61 -6.98,4.4 -1.94,1.79 -3.44,3.87 -4.52,6.23 -1.07,2.36 -1.68,4.83 -1.82,7.41l42.53 0zm51.78 -40.39l32.22 0 0 16.76 0.43 0c3.44,-6.45 7.52,-11.28 12.25,-14.5 4.73,-3.22 10.67,-4.83 17.83,-4.83 1.86,0 3.73,0.07 5.59,0.21 1.86,0.14 3.58,0.43 5.15,0.86l0 29.43c-2.29,-0.71 -4.55,-1.25 -6.76,-1.61 -2.22,-0.36 -4.55,-0.54 -6.99,-0.54 -6.16,0 -11.03,0.86 -14.6,2.58 -3.59,1.72 -6.34,4.12 -8.28,7.2 -1.93,3.08 -3.18,6.77 -3.76,11.06 -0.57,4.3 -0.86,9.03 -0.86,14.18l0 43.61 -32.22 0 0 -104.41zm146.52 30.72c-4.73,-5.87 -10.96,-8.8 -18.69,-8.8 -2.73,0 -5.38,0.64 -7.95,1.93 -2.58,1.29 -3.87,3.51 -3.87,6.66 0,2.58 1.32,4.48 3.97,5.69 2.65,1.22 6.02,2.29 10.1,3.23 4.08,0.93 8.45,1.93 13.11,3 4.65,1.08 9.02,2.76 13.1,5.05 4.08,2.29 7.45,5.41 10.1,9.35 2.65,3.94 3.97,9.2 3.97,15.79 0,6.73 -1.47,12.28 -4.4,16.65 -2.94,4.36 -6.7,7.87 -11.28,10.52 -4.58,2.65 -9.74,4.51 -15.47,5.59 -5.73,1.07 -11.38,1.61 -16.97,1.61 -7.31,0 -14.68,-1.04 -22.13,-3.12 -7.45,-2.07 -13.75,-5.76 -18.9,-11.06l19.55 -21.7c3,3.73 6.33,6.55 9.99,8.49 3.65,1.93 7.91,2.9 12.78,2.9 3.72,0 7.09,-0.54 10.1,-1.61 3,-1.08 4.51,-3.05 4.51,-5.91 0,-2.72 -1.33,-4.76 -3.98,-6.12 -2.65,-1.36 -6.01,-2.51 -10.09,-3.44 -4.09,-0.93 -8.45,-1.93 -13.11,-3.01 -4.65,-1.07 -9.02,-2.68 -13.1,-4.83 -4.09,-2.15 -7.45,-5.19 -10.1,-9.13 -2.65,-3.94 -3.98,-9.2 -3.98,-15.79 0,-6.16 1.26,-11.46 3.76,-15.9 2.51,-4.44 5.8,-8.09 9.89,-10.96 4.08,-2.86 8.77,-4.97 14.07,-6.33 5.3,-1.36 10.67,-2.04 16.11,-2.04 6.88,0 13.82,1 20.84,3 7.02,2.01 12.96,5.59 17.83,10.74l-19.76 19.55z"/>
  </g>
 </g>
</svg>
