<?xml version="1.0" encoding="iso-8859-1"?>
<!-- Uploaded to: SVG Repo, www.svgrepo.com, Generator: SVG Repo Mixer Tools -->
<!DOCTYPE svg PUBLIC "-//W3C//DTD SVG 1.1//EN" "http://www.w3.org/Graphics/SVG/1.1/DTD/svg11.dtd">
<svg fill="#000000" version="1.1" id="Capa_1" xmlns="http://www.w3.org/2000/svg" xmlns:xlink="http://www.w3.org/1999/xlink" 
	 width="800px" height="800px" viewBox="0 0 58.642 58.642"
	 xml:space="preserve">
<g>
	<g>
		<polygon points="27.105,12.682 22.612,10.738 22.612,15.058 27.105,16.847 		"/>
		<polygon points="27.105,23.109 31.593,24.901 31.593,20.736 27.105,18.792 		"/>
		<polygon points="30.21,26.743 25.721,24.797 25.721,29.117 30.21,30.907 		"/>
		<polygon points="22.612,37.342 27.105,39.132 27.105,34.967 22.612,33.023 		"/>
		<polygon points="25.895,47.91 30.382,49.7 30.382,45.535 25.895,43.592 		"/>
		<path d="M40.791,21.027l-7.127,4.669v32.945h7.127v-34.68l4.907,2.062v32.618h2.073V26.896v-1.282v-1.171L40.791,21.027z
			 M36.819,52.563l-2.571,1.403v-3.623l2.571-1.459V52.563z M36.819,47.001l-2.571,1.401v-3.621l2.571-1.459V47.001z M36.819,41.438
			l-2.571,1.402v-3.624l2.571-1.458V41.438z M36.819,35.874l-2.571,1.402v-3.622l2.571-1.46V35.874z M36.819,30.311l-2.571,1.403
			v-3.625l2.571-1.458V30.311z M39.798,51.048l-2.569,1.403v-3.623l2.569-1.459V51.048z M39.798,45.486l-2.569,1.4v-3.621
			l2.569-1.46V45.486z M39.798,39.921l-2.569,1.404v-3.624l2.569-1.459V39.921z M39.798,34.358l-2.569,1.403v-3.623l2.569-1.458
			V34.358z M39.798,28.795l-2.569,1.403v-3.625l2.569-1.459V28.795z"/>
		<path d="M19.956,3.743V0h-2.073v5.102l-7.014,4.6v48.7h10.536V7.135l10.318,4.337V7.846L21.405,2.795L19.956,3.743z M15.529,49.42
			l-3.798,2.071v-5.354l3.798-2.157V49.42z M15.529,41.193l-3.798,2.073v-5.355l3.798-2.157V41.193z M15.529,32.969l-3.798,2.073
			v-5.355l3.798-2.157V32.969z M15.529,24.745l-3.798,2.072v-5.355l3.798-2.158V24.745z M15.529,16.521l-3.798,2.072v-5.355
			l3.798-2.156V16.521z M19.936,47.179l-3.798,2.072v-5.354l3.798-2.156V47.179z M19.936,38.955l-3.798,2.07v-5.354l3.798-2.157
			V38.955z M19.936,30.73l-3.798,2.072v-5.355l3.798-2.158V30.73z M19.936,22.505l-3.798,2.071v-5.355l3.798-2.157V22.505z
			 M19.936,14.279l-3.798,2.071v-5.354l3.798-2.158V14.279z"/>
	</g>
</g>
</svg>