<?xml version="1.0" encoding="iso-8859-1"?>
<!-- Uploaded to: SVG Repo, www.svgrepo.com, Generator: SVG Repo Mixer Tools -->
<svg version="1.1" id="Layer_1" xmlns="http://www.w3.org/2000/svg" xmlns:xlink="http://www.w3.org/1999/xlink" 
	 viewBox="0 0 512 512" xml:space="preserve">
<g>
	<rect x="39.588" y="155.711" style="fill:#3FA9F5;" width="58.062" height="42.227"/>
	<rect x="97.649" y="155.711" style="fill:#3FA9F5;" width="58.062" height="42.227"/>
	<rect x="97.649" y="240.165" style="fill:#3FA9F5;" width="58.062" height="42.227"/>
	<rect x="39.588" y="240.165" style="fill:#3FA9F5;" width="58.062" height="42.227"/>
	<rect x="39.588" y="324.619" style="fill:#3FA9F5;" width="58.062" height="42.227"/>
	<rect x="97.649" y="324.619" style="fill:#3FA9F5;" width="58.062" height="42.227"/>
	<rect x="97.649" y="409.072" style="fill:#3FA9F5;" width="58.062" height="42.227"/>
	<rect x="39.588" y="409.072" style="fill:#3FA9F5;" width="58.062" height="42.227"/>
	<rect x="366.845" y="419.629" style="fill:#3FA9F5;" width="105.567" height="42.227"/>
	<rect x="366.845" y="335.175" style="fill:#3FA9F5;" width="105.567" height="42.227"/>
	<rect x="366.845" y="250.722" style="fill:#3FA9F5;" width="105.567" height="42.227"/>
	<rect x="366.845" y="166.268" style="fill:#3FA9F5;" width="105.567" height="42.227"/>
	<rect x="366.845" y="81.814" style="fill:#3FA9F5;" width="105.567" height="42.227"/>
</g>
<path style="fill:#E6E6E6;" d="M504.082,44.866v464.495H335.175V213.773V44.866H504.082z M472.412,461.856v-42.227H366.845v42.227
	H472.412z M472.412,377.402v-42.227H366.845v42.227H472.412z M472.412,292.948v-42.227H366.845v42.227H472.412z M472.412,208.495
	v-42.227H366.845v42.227H472.412z M472.412,124.041V81.814H366.845v42.227H472.412z"/>
<g>
	<rect x="187.381" y="213.773" style="fill:#CCCCCC;" width="147.794" height="295.588"/>
	<path style="fill:#CCCCCC;" d="M187.381,213.773v295.588H7.918V118.763h179.464V213.773z M155.711,451.299v-42.227H97.649H39.588
		v42.227h58.062H155.711z M155.711,366.845v-42.227H97.649H39.588v42.227h58.062H155.711z M155.711,282.392v-42.227H97.649H39.588
		v42.227h58.062H155.711z M155.711,197.938v-42.227H97.649H39.588v42.227h58.062H155.711z"/>
</g>
<polygon points="427.546,36.948 427.546,2.639 411.711,2.639 411.711,36.948 327.258,36.948 327.258,205.856 269.196,205.856 
	269.196,166.268 253.361,166.268 253.361,205.856 195.299,205.856 195.299,110.845 105.567,110.845 105.567,71.258 89.732,71.258 
	89.732,110.845 0,110.845 0,509.361 15.835,509.361 15.835,126.68 179.464,126.68 179.464,509.361 195.299,509.361 195.299,221.691 
	327.258,221.691 327.258,509.361 343.093,509.361 343.093,52.784 496.165,52.784 496.165,509.361 512,509.361 512,36.948 "/>
<path d="M31.67,205.856h131.959v-58.062H31.67V205.856z M147.794,190.021h-42.227v-26.392h42.227V190.021z M47.505,163.629h42.227
	v26.392H47.505V163.629z"/>
<path d="M31.67,290.309h131.959v-58.062H31.67V290.309z M147.794,274.474h-42.227v-26.392h42.227V274.474z M47.505,248.082h42.227
	v26.392H47.505V248.082z"/>
<path d="M31.67,374.763h131.959v-58.062H31.67V374.763z M147.794,358.928h-42.227v-26.392h42.227V358.928z M47.505,332.536h42.227
	v26.392H47.505V332.536z"/>
<path d="M31.67,459.217h131.959v-58.062H31.67V459.217z M147.794,443.381h-42.227V416.99h42.227V443.381z M47.505,416.99h42.227
	v26.392H47.505V416.99z"/>
<path d="M358.928,131.959H480.33V73.897H358.928V131.959z M374.763,89.732h89.732v26.392h-89.732V89.732z"/>
<path d="M358.928,216.412H480.33v-58.062H358.928V216.412z M374.763,174.186h89.732v26.392h-89.732V174.186z"/>
<path d="M358.928,300.866H480.33v-58.062H358.928V300.866z M374.763,258.639h89.732v26.392h-89.732V258.639z"/>
<path d="M358.928,385.32H480.33v-58.062H358.928V385.32z M374.763,343.093h89.732v26.392h-89.732V343.093z"/>
<path d="M358.928,469.773H480.33v-58.062H358.928V469.773z M374.763,427.546h89.732v26.392h-89.732V427.546z"/>
<rect x="208.495" y="242.804" width="105.567" height="15.835"/>
<rect x="208.495" y="285.031" width="105.567" height="15.835"/>
<rect x="208.495" y="327.258" width="105.567" height="15.835"/>
<rect x="208.495" y="369.485" width="105.567" height="15.835"/>
<rect x="208.495" y="411.711" width="105.567" height="15.835"/>
<rect x="208.495" y="453.938" width="105.567" height="15.835"/>
</svg>