<?xml version="1.0" encoding="iso-8859-1"?>
<!-- Uploaded to: SVG Repo, www.svgrepo.com, Generator: SVG Repo Mixer Tools -->
<svg fill="#000000" version="1.1" id="Layer_1" xmlns="http://www.w3.org/2000/svg" xmlns:xlink="http://www.w3.org/1999/xlink" 
	 viewBox="0 0 512 512" xml:space="preserve">
<g>
	<g>
		<rect y="496.289" width="512" height="15.61"/>
	</g>
</g>
<g>
	<g>
		<polygon points="112.39,103.969 112.39,487.969 128,487.969 128,119.579 384,119.579 384,487.969 399.61,487.969 399.61,103.969 
					"/>
	</g>
</g>
<g>
	<g>
		<rect x="247.675" y="127.909" width="15.61" height="360.065"/>
	</g>
</g>
<g>
	<g>
		<path d="M416.193,272.098v111.609h63.61V272.098H416.193z M464.193,368.097h-32.39v-80.389h32.39V368.097z"/>
	</g>
</g>
<g>
	<g>
		<rect x="440.195" y="303.768" width="15.61" height="15.61"/>
	</g>
</g>
<g>
	<g>
		<rect x="440.195" y="336.029" width="15.61" height="15.61"/>
	</g>
</g>
<g>
	<g>
		<path d="M112.197,0.101v87.609h287.606V0.101H112.197z M384.193,72.101H127.806v-56.39h256.386V72.101z"/>
	</g>
</g>
<g>
	<g>
		<polygon points="160.001,28.869 138.482,50.388 149.521,61.425 160.001,50.944 170.482,61.425 181.52,50.388 		"/>
	</g>
</g>
<g>
	<g>
		<polygon points="226.482,26.387 216.001,36.869 205.52,26.387 194.482,37.425 216.001,58.944 237.519,37.425 		"/>
	</g>
</g>
<g>
	<g>
		<rect x="256" y="40.489" width="15.61" height="15.61"/>
	</g>
</g>
<g>
	<g>
		<rect x="279.935" y="40.489" width="15.61" height="15.61"/>
	</g>
</g>
<g>
	<g>
		<rect x="303.87" y="40.489" width="15.61" height="15.61"/>
	</g>
</g>
<g>
	<g>
		<rect x="327.805" y="40.489" width="16.65" height="15.61"/>
	</g>
</g>
<g>
	<g>
		<rect x="351.74" y="40.489" width="16.65" height="15.61"/>
	</g>
</g>
<g>
	<g>
		<path d="M16.199,104.101v127.608h79.609V104.101H16.199z M80.198,216.099H31.809v-96.388h48.389V216.099z"/>
	</g>
</g>
<g>
	<g>
		<rect x="39.545" y="136.234" width="32.26" height="15.61"/>
	</g>
</g>
<g>
	<g>
		<rect x="39.545" y="160.169" width="24.976" height="15.61"/>
	</g>
</g>
<g>
	<g>
		<rect x="39.545" y="184.104" width="16.65" height="15.61"/>
	</g>
</g>
</svg>