<?xml version="1.0" encoding="iso-8859-1"?>
<!-- Uploaded to: SVG Repo, www.svgrepo.com, Generator: SVG Repo Mixer Tools -->
<svg fill="#000000" height="800px" width="800px" version="1.1" id="Layer_1" xmlns="http://www.w3.org/2000/svg" xmlns:xlink="http://www.w3.org/1999/xlink" 
	 viewBox="0 0 290.625 290.625" xml:space="preserve">
<g>
	<g>
		<path d="M234.375,191.948c31.411-2.405,56.25-28.678,56.25-60.698c0-19.528-9.098-37.392-24.609-48.862
			c8.255-9.028,12.891-20.822,12.891-33.169C278.906,22.078,256.828,0,229.688,0c-17.569,0-33.45,9.323-42.197,23.981
			C178.88,9.647,163.219,0,145.313,0c-17.916,0-33.581,9.656-42.192,24.005C94.383,9.338,78.511,0,60.938,0
			C33.797,0,11.719,22.078,11.719,49.219c0,12.347,4.636,24.141,12.891,33.169C9.098,93.858,0,111.722,0,131.25
			c0,32.02,24.839,58.294,56.25,60.698v89.302H0v9.375h290.625v-9.375h-56.25V191.948z M187.495,74.489
			c1.697,2.827,3.661,5.484,5.892,7.927c-2.011,1.519-3.923,3.23-5.784,5.044c-1.875-1.795-3.844-3.502-5.962-5.067
			C183.872,79.945,185.813,77.288,187.495,74.489z M108.983,82.392c-2.128,1.575-4.111,3.295-5.991,5.1
			c-1.85-1.828-3.748-3.562-5.755-5.076c2.236-2.447,4.191-5.119,5.873-7.955C104.798,77.274,106.743,79.941,108.983,82.392z
			 M56.251,63.835v59.831l-21.342-10.669l-4.195,8.386l25.537,12.764v48.427C30.009,180.197,9.375,158.1,9.375,131.25
			c0-18.225,9.375-34.739,25.078-44.175l5.578-3.352l-4.945-4.228c-8.892-7.603-13.992-18.637-13.992-30.277
			c0-21.97,17.873-39.844,39.844-39.844c16.613,0,31.392,10.284,37.238,25.748c-1.341,4.467-2.081,9.197-2.081,14.095
			c0,4.833,0.731,9.577,2.095,14.109c-0.005,0.009-0.005,0.014-0.014,0.023c-2.372,6.23-6.286,11.784-11.386,16.144l-4.945,4.228
			l5.578,3.352c3.323,1.997,6.478,4.477,9.417,7.378c-4.336,5.667-7.608,12.037-9.703,18.881l-0.173-0.342l-21.338,10.673V63.834
			l16.158-8.081l-4.195-8.386l-16.65,8.33l-16.655-8.325l-4.195,8.386L56.251,63.835z M96.816,167.995
			c0.023,0.047,0.037,0.094,0.061,0.146c-8.484,8.273-19.533,13.359-31.252,14.442v-48.436l19.139-9.567
			c-0.239,2.198-0.389,4.42-0.389,6.67C84.375,145.059,89.044,157.762,96.816,167.995z M140.625,281.25h-75v-89.316
			c14.039-1.097,27.262-7.055,37.453-16.856c9.905,9.548,23.016,15.759,37.547,16.87V281.25z M140.625,63.835v59.831l-21.342-10.669
			l-4.195,8.386l25.537,12.764v48.427C114.384,180.197,93.75,158.1,93.75,131.25c0-18.225,9.375-34.739,25.078-44.175l5.578-3.352
			l-4.945-4.228c-8.892-7.603-13.992-18.637-13.992-30.277c0-21.97,17.873-39.843,39.844-39.843
			c21.97,0,39.844,17.873,39.844,39.844c0,11.639-5.1,22.673-13.988,30.277l-4.945,4.228l5.578,3.352
			c15.698,9.436,25.073,25.95,25.073,44.175c0,26.85-20.634,48.947-46.875,51.323v-48.427l25.533-12.769l-4.195-8.386L150,123.666
			V63.834l16.158-8.081l-4.195-8.386l-16.65,8.33l-16.655-8.325l-4.195,8.386L140.625,63.835z M225,281.25h-75v-89.302
			c14.527-1.116,27.628-7.317,37.533-16.856c10.191,9.802,23.428,15.75,37.467,16.842V281.25z M225,182.583
			c-11.723-1.083-22.767-6.169-31.252-14.442c0.028-0.052,0.047-0.103,0.07-0.155c7.763-10.228,12.431-22.931,12.431-36.736
			c0-2.25-0.15-4.472-0.389-6.67l19.14,9.567V182.583z M225,63.834v59.831l-21.342-10.669l-0.173,0.342
			c-2.095-6.844-5.372-13.214-9.703-18.881c2.939-2.906,6.094-5.381,9.417-7.378l5.578-3.352l-4.945-4.228
			c-5.095-4.359-9.009-9.914-11.386-16.144c0.014-0.052,0.019-0.108,0.033-0.159c1.336-4.491,2.048-9.188,2.048-13.973
			c0-4.898-0.741-9.628-2.081-14.095c5.849-15.469,20.629-25.753,37.242-25.753c21.97,0,39.844,17.873,39.844,39.844
			c0,11.639-5.1,22.673-13.988,30.277l-4.945,4.228l5.578,3.352c15.698,9.436,25.073,25.95,25.073,44.175
			c0,26.85-20.634,48.947-46.875,51.323v-48.427l25.533-12.769l-4.195-8.386l-21.337,10.673V63.834l16.158-8.081l-4.195-8.386
			l-16.65,8.33l-16.655-8.325l-4.195,8.386L225,63.834z"/>
	</g>
</g>
</svg>