<?xml version="1.0" encoding="iso-8859-1"?>
<!-- Uploaded to: SVG Repo, www.svgrepo.com, Generator: SVG Repo Mixer Tools -->
<svg fill="#000000" version="1.1" id="Layer_1" xmlns="http://www.w3.org/2000/svg" xmlns:xlink="http://www.w3.org/1999/xlink" 
	 viewBox="0 0 290.625 290.625" xml:space="preserve">
<g>
	<g>
		<g>
			<path d="M264.595,197.367c-5.658-2.831-7.434-8.663-10.331-19.584c-3.909-14.756-9.248-34.72-31.875-56.353
				c4.28-6.22,9.366-12.886,15.511-19.908l1.163-1.322v-1.762c0-0.9-0.15-1.683-0.211-2.536L259.753,75h7.434
				c15.553,0,23.438-7.889,23.438-23.438c0-10.13-7.917-16.167-14.498-18.08c-1.481-6.956-6.858-14.733-18.314-14.733
				c-15.553,0-23.438,7.889-23.438,23.438V54.31l-20.363,20.362c-2.273,0.098-3.82,0.389-3.994,0.422l-1.392,0.281l-1.003,1.003
				c-10.317,10.317-20.63,17.194-29.841,21.853c-4.753-1.12-20.128-4.481-32.47-4.481C62.4,93.75,0,162,0,206.25
				c0,64.875,74.25,65.625,75,65.625h103.125c27.938,0,56.827,0,76.139-4.828c16.87-4.219,31.673-21.675,31.673-37.359
				C285.938,216.131,277.959,204.052,264.595,197.367z M243.75,58.191V42.188c0-10.383,3.68-14.063,14.063-14.063
				c8.564,0,9.342,7.2,9.375,9.375v4.688h4.688c2.259,0,9.375,2.822,9.375,9.375c0,10.383-3.68,14.063-14.063,14.063h-11.316
				l-19.847,19.847c-1.209-2.222-2.667-4.233-4.617-5.827c-1.819-1.491-3.811-2.541-5.817-3.295L243.75,58.191z M213.127,84.113
				c2.573-0.253,8.438-0.422,12.337,2.78c2.498,2.053,3.9,5.362,4.177,9.853c-32.217,37.364-37.191,65.358-37.387,66.548
				l-0.066,0.769c0,25.847-21.028,46.875-46.875,46.875c-25.847,0-46.875-21.028-46.875-46.875s21.028-46.875,46.875-46.875
				C146.714,117.188,179.709,116.808,213.127,84.113z M251.986,257.953c-18.188,4.547-46.491,4.547-73.861,4.547H75
				c-2.681,0-65.625-0.642-65.625-56.25c0-40.725,60.9-103.125,135.938-103.125c5.227,0,11.198,0.698,16.547,1.542
				c-9.909,3-16.411,3.145-16.547,3.145c-31.017,0-56.25,25.233-56.25,56.25c0,31.017,25.233,56.25,56.25,56.25
				c30.863,0,56.002-24.984,56.25-55.791c0.464-2.227,3.652-15.689,15.623-35.119c19.673,19.317,24.281,36.67,28.022,50.789
				c2.944,11.114,5.489,20.714,15.197,25.566c4.856,2.428,16.158,9.619,16.158,23.93
				C276.563,241.266,264.848,254.738,251.986,257.953z"/>
			<path d="M242.269,239.306c-12.305,4.102-31.486,4.444-50.081,4.444v9.375c19.364,0,39.413-0.38,53.044-4.927
				c10.814-3.6,17.269-12.272,17.269-23.198h-9.375C253.125,231.896,249.272,236.972,242.269,239.306z"/>
			<rect x="164.063" y="243.75" width="14.063" height="9.375"/>
			<path d="M107.813,164.063h9.375c0-15.511,12.614-28.125,28.125-28.125v-9.375C124.636,126.563,107.813,143.386,107.813,164.063z"
				/>
		</g>
	</g>
</g>
</svg>