<?xml version="1.0" encoding="iso-8859-1"?>
<!-- Uploaded to: SVG Repo, www.svgrepo.com, Generator: SVG Repo Mixer Tools -->
<svg height="800px" width="800px" version="1.1" id="Layer_1" xmlns="http://www.w3.org/2000/svg" xmlns:xlink="http://www.w3.org/1999/xlink" 
	 viewBox="0 0 512 512" xml:space="preserve">
<g transform="translate(1 1)">
	<g>
		<path style="fill:#FFE100;" d="M34.84,220.867H14.36c-3.413,0-6.827-3.413-6.827-6.827v-53.76c0-4.267,3.413-7.68,6.827-7.68
			h19.627c4.267,0,7.68,3.413,7.68,6.827v53.76C41.667,217.453,38.253,220.867,34.84,220.867"/>
		<path style="fill:#FFE100;" d="M475.16,220.867h19.627c4.267,0,6.827-3.413,6.827-6.827v-53.76c0-4.267-3.413-6.827-6.827-6.827
			H475.16c-4.267,0-6.827,3.413-6.827,6.827v53.76C468.333,217.453,471.747,220.867,475.16,220.867"/>
		<path style="fill:#FFE100;" d="M408.6,297.667V116.76c0-12.8-10.24-23.893-23.893-23.893H125.293
			c-12.8,0-23.893,10.24-23.893,23.893v180.907H50.2v102.4h8.533H459.8v-102.4H408.6z"/>
	</g>
	<path style="fill:#FFFFFF;" d="M50.2,400.067h25.6v-102.4H50.2V400.067z"/>
	<path style="fill:#FFA800;" d="M434.2,400.067h25.6v-102.4h-25.6V400.067z"/>
	<path style="fill:#FECC00;" d="M101.4,297.667V116.76c0-12.8,10.24-23.893,23.893-23.893h259.413
		c12.8,0,23.893,10.24,23.893,23.893v180.907h34.133V24.6c0-9.387-7.68-17.067-17.067-17.067H84.333
		c-9.387,0-17.067,7.68-17.067,17.067v273.067H101.4z"/>
	<path style="fill:#63D3FD;" d="M323.267,272.067h-153.6c-9.387,0-17.067-7.68-17.067-17.067V152.6
		c0-9.387,7.68-17.067,17.067-17.067h153.6c9.387,0,17.067,7.68,17.067,17.067V255C340.333,264.387,332.653,272.067,323.267,272.067
		"/>
	<path style="fill:#3DB9F9;" d="M348.867,135.533h-25.6c9.387,0,17.067,7.68,17.067,17.067V255c0,9.387-7.68,17.067-17.067,17.067
		h25.6c9.387,0,17.067-7.68,17.067-17.067V152.6C365.933,143.213,358.253,135.533,348.867,135.533"/>
	<path style="fill:#FFA800;" d="M417.133,297.667h25.6V7.533h-25.6V297.667z"/>
	<path style="fill:#FFFFFF;" d="M67.267,297.667h25.6V7.533h-25.6V297.667z"/>
	<g>
		<path style="fill:#63D3FD;" d="M127,348.867c0,9.387-7.68,17.067-17.067,17.067s-17.067-7.68-17.067-17.067
			c0-9.387,7.68-17.067,17.067-17.067S127,339.48,127,348.867"/>
		<path style="fill:#63D3FD;" d="M417.133,348.867c0,9.387-7.68,17.067-17.067,17.067S383,358.253,383,348.867
			c0-9.387,7.68-17.067,17.067-17.067S417.133,339.48,417.133,348.867"/>
	</g>
	<path style="fill:#FFE100;" d="M417.133,451.267H101.4c-9.387,0-17.067-7.68-17.067-17.067v-33.28H434.2v33.28
		C434.2,443.587,426.52,451.267,417.133,451.267"/>
	<path style="fill:#FFA800;" d="M434.2,400.92v33.28c0,9.387-7.68,17.067-17.067,17.067h25.6c9.387,0,17.067-7.68,17.067-17.067
		v-33.28H434.2z"/>
	<path style="fill:#FFFFFF;" d="M84.333,433.347v-33.28h-25.6v33.28c0,9.387,7.68,17.067,17.067,17.067h25.6
		C92.013,450.413,84.333,442.733,84.333,433.347"/>
	<path style="fill:#FFE100;" d="M144.067,502.467h-8.533c-14.507,0-25.6-11.093-25.6-25.6v-34.133h59.733v34.133
		C169.667,491.373,158.573,502.467,144.067,502.467"/>
	<path style="fill:#FFFFFF;" d="M109.933,476.867v-34.133h-25.6v34.133c0,14.507,11.093,25.6,25.6,25.6h25.6
		C121.027,502.467,109.933,491.373,109.933,476.867"/>
	<path style="fill:#FFE100;" d="M365.933,502.467h8.533c14.507,0,25.6-11.093,25.6-25.6v-34.133h-59.733v34.133
		C340.333,491.373,351.427,502.467,365.933,502.467"/>
	<path style="fill:#FFA800;" d="M400.067,476.867v-34.133h25.6v34.133c0,14.507-11.093,25.6-25.6,25.6h-25.6
		C388.973,502.467,400.067,491.373,400.067,476.867"/>
	<path d="M144.067,511h-34.133C91.16,511,75.8,495.64,75.8,476.867v-34.133h102.4v34.133C178.2,495.64,162.84,511,144.067,511z
		 M92.867,459.8v17.067c0,9.387,7.68,17.067,17.067,17.067h34.133c9.387,0,17.067-7.68,17.067-17.067V459.8H92.867z"/>
	<path d="M400.067,511h-34.133c-18.773,0-34.133-15.36-34.133-34.133v-34.133h102.4v34.133C434.2,495.64,418.84,511,400.067,511z
		 M348.867,459.8v17.067c0,9.387,7.68,17.067,17.067,17.067h34.133c9.387,0,17.067-7.68,17.067-17.067V459.8H348.867z"/>
	<path d="M348.867,280.6H161.133c-14.507,0-25.6-11.093-25.6-25.6V152.6c0-14.507,11.093-25.6,25.6-25.6h187.733
		c14.507,0,25.6,11.093,25.6,25.6V255C374.467,269.507,363.373,280.6,348.867,280.6z M161.133,144.067
		c-5.12,0-8.533,3.413-8.533,8.533V255c0,5.12,3.413,8.533,8.533,8.533h187.733c5.12,0,8.533-3.413,8.533-8.533V152.6
		c0-5.12-3.413-8.533-8.533-8.533H161.133z"/>
	<path d="M67.267,195.267h-25.6c-5.12,0-8.533-3.413-8.533-8.533c0-5.12,3.413-8.533,8.533-8.533h25.6
		c5.12,0,8.533,3.413,8.533,8.533C75.8,191.853,72.387,195.267,67.267,195.267z"/>
	<path d="M34.84,229.4H14.36C5.827,229.4-1,222.573-1,214.04v-53.76c0-8.533,6.827-15.36,15.36-15.36h19.627
		c8.533,0,15.36,6.827,15.36,15.36v53.76C50.2,222.573,43.373,229.4,34.84,229.4z M16.067,212.333h17.067v-51.2H16.067V212.333z"/>
	<path d="M468.333,195.267h-25.6c-5.12,0-8.533-3.413-8.533-8.533c0-5.12,3.413-8.533,8.533-8.533h25.6
		c5.12,0,8.533,3.413,8.533,8.533C476.867,191.853,473.453,195.267,468.333,195.267z"/>
	<path d="M495.64,229.4h-19.627c-8.533,0-15.36-6.827-15.36-15.36v-53.76c0-8.533,6.827-15.36,15.36-15.36h19.627
		c8.533,0,15.36,6.827,15.36,15.36v53.76C511,222.573,504.173,229.4,495.64,229.4z M476.867,212.333h17.067v-51.2h-17.067V212.333z"
		/>
	<path d="M289.133,331.8h-68.267c-5.12,0-8.533-3.413-8.533-8.533c0-5.12,3.413-8.533,8.533-8.533h68.267
		c5.12,0,8.533,3.413,8.533,8.533C297.667,328.387,294.253,331.8,289.133,331.8z"/>
	<path d="M314.733,365.933H195.267c-5.12,0-8.533-3.413-8.533-8.533s3.413-8.533,8.533-8.533h119.467
		c5.12,0,8.533,3.413,8.533,8.533S319.853,365.933,314.733,365.933z"/>
	<path d="M195.267,280.6c-2.56,0-4.267-0.853-5.973-2.56c-3.413-3.413-3.413-8.533,0-11.947l42.667-42.667
		c3.413-3.413,8.533-3.413,11.947,0s3.413,8.533,0,11.947L201.24,278.04C199.533,279.747,197.827,280.6,195.267,280.6z"/>
	<path d="M272.067,280.6c-2.56,0-4.267-0.853-5.973-2.56c-3.413-3.413-3.413-8.533,0-11.947l42.667-42.667
		c3.413-3.413,8.533-3.413,11.947,0c3.413,3.413,3.413,8.533,0,11.947L278.04,278.04C276.333,279.747,274.627,280.6,272.067,280.6z"
		/>
	<path d="M459.8,408.6H50.2c-5.12,0-8.533-3.413-8.533-8.533v-102.4c0-5.12,3.413-8.533,8.533-8.533h42.667V116.76
		c0-17.92,14.507-32.427,32.427-32.427h259.413c17.92,0,32.427,14.507,32.427,32.427v172.373H459.8c5.12,0,8.533,3.413,8.533,8.533
		v102.4C468.333,405.187,464.92,408.6,459.8,408.6z M58.733,391.533h392.533V306.2H408.6c-5.12,0-8.533-3.413-8.533-8.533V116.76
		c0-8.533-6.827-15.36-15.36-15.36H125.293c-8.533,0-15.36,6.827-15.36,15.36v180.907c0,5.12-3.413,8.533-8.533,8.533H58.733
		V391.533z"/>
	<path d="M442.733,459.8H67.267c-14.507,0-25.6-11.093-25.6-25.6v-33.28c0-5.12,3.413-8.533,8.533-8.533h409.6
		c5.12,0,8.533,3.413,8.533,8.533v33.28C468.333,448.707,457.24,459.8,442.733,459.8z M58.733,409.453V434.2
		c0,5.12,3.413,8.533,8.533,8.533h375.467c5.12,0,8.533-3.413,8.533-8.533v-24.747H58.733z"/>
	<path d="M451.267,306.2h-51.2V116.76c0-8.533-6.827-15.36-15.36-15.36H125.293c-8.533,0-15.36,6.827-15.36,15.36V306.2h-51.2V24.6
		c0-14.507,11.093-25.6,25.6-25.6h341.333c14.507,0,25.6,11.093,25.6,25.6V306.2z M417.133,289.133H434.2V24.6
		c0-5.12-3.413-8.533-8.533-8.533H84.333c-5.12,0-8.533,3.413-8.533,8.533v264.533h17.067V116.76
		c0-17.92,14.507-32.427,32.427-32.427h259.413c17.92,0,32.427,14.507,32.427,32.427V289.133z"/>
	<path d="M109.933,374.467c-14.507,0-25.6-11.093-25.6-25.6c0-14.507,11.093-25.6,25.6-25.6s25.6,11.093,25.6,25.6
		C135.533,363.373,124.44,374.467,109.933,374.467z M109.933,340.333c-5.12,0-8.533,3.413-8.533,8.533
		c0,5.12,3.413,8.533,8.533,8.533c5.12,0,8.533-3.413,8.533-8.533C118.467,343.747,115.053,340.333,109.933,340.333z"/>
	<path d="M400.067,374.467c-14.507,0-25.6-11.093-25.6-25.6c0-14.507,11.093-25.6,25.6-25.6c14.507,0,25.6,11.093,25.6,25.6
		C425.667,363.373,414.573,374.467,400.067,374.467z M400.067,340.333c-5.12,0-8.533,3.413-8.533,8.533
		c0,5.12,3.413,8.533,8.533,8.533s8.533-3.413,8.533-8.533C408.6,343.747,405.187,340.333,400.067,340.333z"/>
	<path d="M161.133,101.4c-5.12,0-8.533-3.413-8.533-8.533V58.733c0-5.12,3.413-8.533,8.533-8.533c5.12,0,8.533,3.413,8.533,8.533
		v34.133C169.667,97.987,166.253,101.4,161.133,101.4z"/>
	<path d="M203.8,101.4c-5.12,0-8.533-3.413-8.533-8.533V58.733c0-5.12,3.413-8.533,8.533-8.533c5.12,0,8.533,3.413,8.533,8.533
		v34.133C212.333,97.987,208.92,101.4,203.8,101.4z"/>
	<path d="M246.467,101.4c-5.12,0-8.533-3.413-8.533-8.533V58.733c0-5.12,3.413-8.533,8.533-8.533c5.12,0,8.533,3.413,8.533,8.533
		v34.133C255,97.987,251.587,101.4,246.467,101.4z"/>
	<path d="M289.133,101.4c-5.12,0-8.533-3.413-8.533-8.533V58.733c0-5.12,3.413-8.533,8.533-8.533c5.12,0,8.533,3.413,8.533,8.533
		v34.133C297.667,97.987,294.253,101.4,289.133,101.4z"/>
	<path d="M331.8,101.4c-5.12,0-8.533-3.413-8.533-8.533V58.733c0-5.12,3.413-8.533,8.533-8.533s8.533,3.413,8.533,8.533v34.133
		C340.333,97.987,336.92,101.4,331.8,101.4z"/>
</g>
</svg>