<?xml version="1.0" encoding="iso-8859-1"?>
<!-- Uploaded to: SVG Repo, www.svgrepo.com, Generator: SVG Repo Mixer Tools -->
<svg fill="#000000" height="800px" width="800px" version="1.1" id="Layer_1" xmlns="http://www.w3.org/2000/svg" xmlns:xlink="http://www.w3.org/1999/xlink" 
	 viewBox="0 0 512 512" xml:space="preserve">
<g>
	<g>
		<path d="M491.243,318.27h-27.676h-62.27V172.973c0-80.117-65.179-145.297-145.297-145.297s-145.297,65.18-145.297,145.297V318.27
			h-62.27H20.757C9.294,318.27,0,327.564,0,339.027s9.294,20.757,20.757,20.757h6.919v103.784c0,11.463,9.294,20.757,20.757,20.757
			h415.135c11.463,0,20.757-9.294,20.757-20.757V359.784h6.919c11.463,0,20.757-9.294,20.757-20.757S502.707,318.27,491.243,318.27z
			 M110.703,442.811H69.189v-83.027h41.513V442.811z M235.243,71.277v101.696h-83.027
			C152.216,122.854,187.929,80.921,235.243,71.277z M152.216,214.486h83.027V318.27h-83.027V214.486z M193.73,442.811h-41.513
			v-83.027h41.513V442.811z M276.757,442.811h-41.514v-83.027h41.514V442.811z M359.784,442.811H318.27v-83.027h41.514V442.811z
			 M359.784,318.27h-83.027V214.486h83.027V318.27z M276.757,172.973V71.277c47.314,9.644,83.027,51.576,83.027,101.696H276.757z
			 M442.811,442.811h-41.514v-83.027h41.514V442.811z"/>
	</g>
</g>
</svg>