<?xml version="1.0" encoding="utf-8"?><svg version="1.1" id="Layer_1" xmlns="http://www.w3.org/2000/svg" xmlns:xlink="http://www.w3.org/1999/xlink" x="0px" y="0px" viewBox="0 0 122.88 114.06" style="enable-background:new 0 0 122.88 114.06" xml:space="preserve"><style type="text/css">.st0{fill-rule:evenodd;clip-rule:evenodd;}</style><g><path className="st0" d="M22.64,0c1.19,2.12,12.71,22.15,12.71,22.4V42.6h12.19V22.4c0-0.24,11.52-20.27,12.71-22.4 c1.19,2.12,12.71,22.15,12.71,22.4V42.6h12.19V22.4c0-0.24,11.52-20.27,12.71-22.4c1.19,2.12,12.71,22.15,12.71,22.4V42.6h12.33 v4.86h-12.33V79.9h12.33v4.86h-12.33v29c0,0.16-0.13,0.3-0.3,0.3H85.43c-0.16,0-0.3-0.13-0.3-0.3v-29H72.94v29 c0,0.16-0.13,0.3-0.3,0.3H47.83c-0.16,0-0.3-0.13-0.3-0.3v-29H35.34v29c0,0.16-0.13,0.3-0.3,0.3H10.23c-0.16,0-0.3-0.13-0.3-0.3 v-29H0V79.9h9.93V47.46H0V42.6h9.93V22.4C9.93,22.15,21.44,2.12,22.64,0L22.64,0z M97.84,79.42c1.62,0,2.93,1.31,2.93,2.93 c0,1.62-1.31,2.93-2.93,2.93s-2.93-1.31-2.93-2.93C94.91,80.74,96.22,79.42,97.84,79.42L97.84,79.42z M97.84,41.54 c1.62,0,2.93,1.31,2.93,2.93c0,1.62-1.31,2.93-2.93,2.93s-2.93-1.31-2.93-2.93C94.91,42.85,96.22,41.54,97.84,41.54L97.84,41.54z M60.24,79.42c1.62,0,2.93,1.31,2.93,2.93c0,1.62-1.31,2.93-2.93,2.93c-1.62,0-2.93-1.31-2.93-2.93 C57.31,80.74,58.62,79.42,60.24,79.42L60.24,79.42z M60.24,41.54c1.62,0,2.93,1.31,2.93,2.93c0,1.62-1.31,2.93-2.93,2.93 c-1.62,0-2.93-1.31-2.93-2.93C57.31,42.85,58.62,41.54,60.24,41.54L60.24,41.54z M85.13,79.9V47.46H72.94V79.9H85.13L85.13,79.9z M47.53,79.9V47.46H35.34V79.9H47.53L47.53,79.9z M14.56,82c0.01,0.11,0.02,0.21,0.02,0.32c0,0.11-0.01,0.22-0.02,0.32v26.78h16.15 V22.4c0-0.97-4.58-7.29-8.07-13.11c-3.5,5.82-8.07,12.14-8.07,13.11v22.31c0.01,0.11,0.02,0.21,0.02,0.32 c0,0.11-0.01,0.22-0.02,0.32V82L14.56,82z M105.91,22.4c0-0.97-4.58-7.29-8.07-13.11c-3.5,5.82-8.07,12.14-8.07,13.11v87.03h16.15 V22.4L105.91,22.4z M68.31,22.4c0-0.96-4.58-7.29-8.07-13.11c-3.5,5.82-8.08,12.14-8.08,13.11v87.03h16.15V22.4L68.31,22.4z M22.63,79.42c1.62,0,2.93,1.31,2.93,2.93c0,1.62-1.31,2.93-2.93,2.93c-1.62,0-2.93-1.31-2.93-2.93 C19.71,80.74,21.02,79.42,22.63,79.42L22.63,79.42z M22.63,41.54c1.62,0,2.93,1.31,2.93,2.93c0,1.62-1.31,2.93-2.93,2.93 c-1.62,0-2.93-1.31-2.93-2.93C19.71,42.85,21.02,41.54,22.63,41.54L22.63,41.54z"/></g></svg>