<?xml version="1.0" encoding="iso-8859-1"?>
<!-- Uploaded to: SVG Repo, www.svgrepo.com, Generator: SVG Repo Mixer Tools -->
<svg fill="#000000" height="800px" width="800px" version="1.1" id="Layer_1" xmlns="http://www.w3.org/2000/svg" xmlns:xlink="http://www.w3.org/1999/xlink" 
	 viewBox="0 0 512 512" xml:space="preserve">
<g>
	<g>
		<path d="M332.96,34.205h-26.188v-9.086C306.772,11.268,295.504,0,281.653,0h-51.307c-13.851,0-25.119,11.268-25.119,25.119v9.086
			H179.04c-23.281,0-42.221,18.941-42.221,42.221v393.353c0,23.281,18.941,42.221,42.221,42.221H332.96
			c23.281,0,42.221-18.941,42.221-42.221V76.426C375.182,53.145,356.241,34.205,332.96,34.205z M221.261,25.119
			c0-5.01,4.076-9.086,9.086-9.086h51.307c5.01,0,9.086,4.076,9.086,9.086v9.086h-69.478V25.119z M179.04,50.238H332.96
			c11.645,0,21.534,7.642,24.928,18.171H154.112C157.506,57.88,167.395,50.238,179.04,50.238z M359.148,469.779
			c0,14.44-11.748,26.188-26.188,26.188H179.04c-14.44,0-26.188-11.748-26.188-26.188V84.443h206.296V469.779z"/>
	</g>
</g>
<g>
	<g>
		<path d="M322.678,251.785c-1.461-2.363-4.042-3.802-6.82-3.802h-48.017l29.807-74.518c0.988-2.47,0.687-5.269-0.805-7.472
			c-1.491-2.203-3.978-3.522-6.638-3.522h-59.858c-3.781,0-7.046,2.64-7.838,6.336l-25.654,119.716
			c-0.508,2.368,0.082,4.837,1.604,6.72c1.522,1.883,3.812,2.977,6.233,2.977h42.064l-15.795,110.565
			c-0.556,3.893,1.793,7.614,5.545,8.786c0.792,0.247,1.597,0.366,2.39,0.366c2.968,0,5.783-1.658,7.17-4.433l76.96-153.921
			C324.271,257.1,324.139,254.149,322.678,251.785z M253.821,362.15l10.116-70.811c0.328-2.301-0.357-4.63-1.88-6.387
			c-1.523-1.755-3.733-2.764-6.056-2.764h-41.391l22.218-103.683h41.536l-29.807,74.518c-0.988,2.47-0.687,5.269,0.805,7.472
			c1.491,2.203,3.978,3.522,6.638,3.522h46.887L253.821,362.15z"/>
	</g>
</g>
</svg>