<?xml version='1.0' encoding='utf-8'?>
<!DOCTYPE svg PUBLIC '-//W3C//DTD SVG 1.1//EN' 'http://www.w3.org/Graphics/SVG/1.1/DTD/svg11.dtd'>
<!-- Uploaded to: SVG Repo, www.svgrepo.com, Generator: SVG Repo Mixer Tools -->
<svg fill="#000000" height="800px" width="800px" version="1.1" xmlns="http://www.w3.org/2000/svg" viewBox="0 0 512 512" xmlns:xlink="http://www.w3.org/1999/xlink" enable-background="new 0 0 512 512">
  <g>
    <path d="m491.1,211.1l-296.2-182.2c-27.5-16.9-59.8-22-91.2-14.6-31.3,7.5-57.8,26.8-74.7,54.3-34.8,56.7-17,131.3 39.6,166.1l89.1,54.8v119.5h-78.2v-29c0-11.3-9.1-20.4-20.4-20.4s-20.4,9.1-20.4,20.4v100.6c0,11.3 9.1,20.4 20.4,20.4s20.4-9.1 20.4-20.4v-30.8h98.6c11.3,0 20.4-9.1 20.4-20.4v-114.8c0,0 90.5,55.7 91.9,56.6 8.3,5.1 17.7,7.7 28.1,7.7 33.5,0 72.3-28 98.9-71.4 16.3-26.6 25.2-53.7 26.6-77.5l25.7,15.8c9.6,5.9 22.2,2.9 28.1-6.7 5.9-9.5 2.9-22.1-6.7-28zm-427.3-121.2c11.1-18.2 28.7-30.9 49.5-35.9 20.7-5 42.1-1.5 60.3,9.6l173.5,106.8c-20.9,12.2-41.3,32.7-57.2,58.7-16.3,26.6-25.2,53.7-26.6,77.5l-173.3-106.6c-37.5-23.1-49.3-72.5-26.2-110.1zm318.8,196.3c-20.9,34.1-55.4,58.5-70.8,50.3-12-6.4-12.3-45 12.8-86 20.9-34.1 51.9-57.3 70.8-50.3 11.6,7.1 12.3,45-12.8,86z"/>
  </g>
</svg>