<?xml version="1.0" encoding="iso-8859-1"?>
<!-- Uploaded to: SVG Repo, www.svgrepo.com, Generator: SVG Repo Mixer Tools -->
<!DOCTYPE svg PUBLIC "-//W3C//DTD SVG 1.1//EN" "http://www.w3.org/Graphics/SVG/1.1/DTD/svg11.dtd">
<svg fill="#000000" height="800px" width="800px" version="1.1" id="Capa_1" xmlns="http://www.w3.org/2000/svg" xmlns:xlink="http://www.w3.org/1999/xlink" 
	 viewBox="0 0 433.113 433.113" xml:space="preserve">
<path id="XMLID_2326_" d="M113.948,300.769c-4.113,3.193-8.404,4.38-12.608,4.38c-7.593,0-14.908-3.869-20.413-6.78l-0.598-0.316
	c-11.519-6.082-27.303-14.898-38.174-21c-1.359-0.764-3.274-1.79-5.514-2.991C17.315,263.699,7.512,257.8,4.064,252.303
	C1.406,248.065,0,243.112,0,237.981c0-5.136,1.406-10.09,4.067-14.328c3.445-5.498,13.258-11.4,32.601-21.768
	c2.229-1.195,4.136-2.216,5.489-2.976c10.909-6.125,26.737-14.967,38.174-21.003l0.604-0.319
	c8.551-4.521,21.472-11.353,33.016-2.394c5.777,4.484,9.227,12.05,9.227,20.238v5.087h29.219c4.971,0,9,4.029,9,9s-4.029,9-9,9
	h-38.219c-4.971,0-9-4.029-9-9v-14.087c0-2.944-1.137-5.144-2.263-6.019c-2.194-1.701-7.008,0.621-13.567,4.088l-0.613,0.324
	c-11.251,5.939-26.942,14.705-37.766,20.782c-1.431,0.803-3.443,1.883-5.797,3.144c-5.675,3.042-22.817,12.23-25.983,15.68
	c-0.779,1.329-1.188,2.895-1.188,4.551c0,1.655,0.409,3.222,1.187,4.549c3.163,3.444,20.291,12.628,25.961,15.668
	c2.364,1.268,4.387,2.353,5.821,3.159c10.782,6.053,26.43,14.793,37.766,20.778l0.607,0.321c6.561,3.47,11.379,5.795,13.572,4.091
	c1.128-0.875,2.263-3.073,2.263-6.017v-14.086c0-4.971,4.029-9,9-9s9,4.029,9,9v14.086
	C123.177,288.721,119.727,296.287,113.948,300.769z M429.05,223.66c-3.449-5.504-13.262-11.407-32.604-21.774
	c-2.229-1.195-4.136-2.216-5.487-2.975c-10.913-6.127-26.743-14.971-38.175-21.004l-0.601-0.317
	c-8.554-4.521-21.477-11.354-33.017-2.396c-5.779,4.483-9.229,12.049-9.229,20.239v5.087h-29.218c-4.971,0-9,4.029-9,9s4.029,9,9,9
	h38.218c4.971,0,9-4.029,9-9v-14.087c0-2.944,1.137-5.143,2.264-6.018c2.199-1.705,7.011,0.62,13.568,4.088l0.611,0.323
	c11.248,5.936,26.94,14.703,37.767,20.782c1.43,0.802,3.442,1.882,5.796,3.143c5.675,3.042,22.819,12.231,25.984,15.68
	c0.776,1.324,1.187,2.893,1.187,4.551c0,1.655-0.409,3.222-1.187,4.549c-3.165,3.445-20.291,12.628-25.961,15.668
	c-2.364,1.268-4.387,2.353-5.82,3.158c-10.785,6.055-26.435,14.797-37.768,20.78l-0.604,0.319
	c-6.563,3.472-11.378,5.793-13.577,4.088c-1.125-0.872-2.26-3.069-2.26-6.013v-14.086c0-4.971-4.029-9-9-9s-9,4.029-9,9v14.086
	c0,8.192,3.451,15.759,9.228,20.236c4.116,3.195,8.406,4.382,12.612,4.382c7.593,0,14.909-3.87,20.413-6.781l0.593-0.313
	c11.517-6.079,27.303-14.897,38.177-21.002c1.358-0.763,3.273-1.789,5.513-2.99c19.326-10.362,29.13-16.261,32.576-21.757
	c2.659-4.24,4.065-9.193,4.065-14.324C433.113,232.845,431.707,227.891,429.05,223.66z M174.007,144.601h5.088v29.219
	c0,4.971,4.029,9,9,9s9-4.029,9-9v-38.219c0-4.971-4.029-9-9-9h-14.088c-2.943,0-5.14-1.134-6.015-2.263
	c-1.705-2.196,0.62-7.011,4.092-13.573l0.321-0.608c5.969-11.312,14.716-26.971,20.775-37.764c0.806-1.434,1.891-3.455,3.158-5.818
	c3.041-5.671,12.227-22.801,15.67-25.964c1.325-0.776,2.892-1.186,4.548-1.186c1.657,0,3.222,0.408,4.55,1.187
	c3.449,3.166,12.641,20.311,15.683,25.986c1.261,2.353,2.34,4.364,3.143,5.793c6.088,10.845,14.866,26.558,20.781,37.767
	l0.324,0.615c3.468,6.559,5.791,11.371,4.087,13.566c-0.874,1.125-3.073,2.261-6.018,2.261h-14.085c-4.971,0-9,4.029-9,9v38.219
	c0,4.971,4.029,9,9,9s9-4.029,9-9v-29.219h5.085c8.19,0,15.756-3.449,20.238-9.227c8.957-11.542,2.126-24.464-2.395-33.014
	l-0.318-0.604c-6.012-11.394-14.867-27.245-21.004-38.176c-0.76-1.353-1.78-3.259-2.975-5.487
	c-10.368-19.343-16.271-29.155-21.766-32.6c-4.237-2.663-9.192-4.07-14.331-4.07c-5.134,0-10.088,1.407-14.326,4.066
	c-5.493,3.447-11.392,13.251-21.755,32.577c-1.2,2.238-2.227,4.153-2.989,5.512c-6.109,10.882-14.934,26.68-20.999,38.173
	l-0.314,0.596c-4.525,8.554-11.363,21.48-2.403,33.021C158.249,141.15,165.814,144.601,174.007,144.601z M310.616,345.345
	c7.294,15.503,16.372,34.798,4.585,51.875c-6.255,9.06-17.064,14.468-28.917,14.468c-10.111,0-20.953-4.958-32.431-10.208
	c-12.36-5.652-25.14-11.497-37.297-11.579c-12.156,0.082-24.937,5.927-37.297,11.58c-11.478,5.249-22.318,10.207-32.429,10.207
	c-11.854,0-22.665-5.409-28.917-14.469c-11.787-17.072-2.713-36.362,4.578-51.862l0.519-1.104
	c9.909-21.097,24.339-50.135,34.331-70.143c1.246-2.495,2.965-6.099,4.955-10.271c16.071-33.699,25.655-51.814,33.436-57.305
	c6.118-4.316,13.318-6.598,20.824-6.598c7.507,0,14.708,2.282,20.824,6.599c7.78,5.49,17.364,23.605,33.436,57.304
	c1.99,4.172,3.709,7.776,4.955,10.271c9.992,20.007,24.422,49.045,34.331,70.143L310.616,345.345z M294.329,353.009l-0.519-1.103
	c-9.827-20.922-24.192-49.83-34.143-69.753c-1.319-2.642-3.07-6.313-5.099-10.566c-5.987-12.556-21.894-45.908-27.603-50.372
	c-3.028-2.136-6.64-3.279-10.41-3.279c-3.77,0-7.382,1.143-10.445,3.305c-5.674,4.438-21.58,37.79-27.567,50.346
	c-2.028,4.252-3.779,7.924-5.099,10.566c-9.95,19.923-24.315,48.831-34.142,69.752l-0.523,1.113
	c-7.224,15.356-11.547,26.017-6.053,33.976c2.894,4.192,8.165,6.694,14.104,6.694c6.189,0,15.299-4.166,24.942-8.577
	c13.45-6.151,28.693-13.122,44.734-13.21c0.016,0,0.032,0,0.049,0s0.033,0,0.049,0c16.041,0.088,31.285,7.059,44.733,13.21
	c9.645,4.411,18.755,8.577,24.945,8.577c5.938,0,11.209-2.502,14.104-6.694C305.882,379.034,301.556,368.37,294.329,353.009z"/>
</svg>