<?xml version="1.0" encoding="iso-8859-1"?>
<!-- Uploaded to: SVG Repo, www.svgrepo.com, Generator: SVG Repo Mixer Tools -->
<svg fill="#000000" height="800px" width="800px" version="1.1" id="Layer_1" xmlns="http://www.w3.org/2000/svg" xmlns:xlink="http://www.w3.org/1999/xlink" 
	 viewBox="0 0 501.334 501.334" xml:space="preserve">
<g>
	<g>
		<path d="M452.618,365.867c0-1.067-24.533-133.333-20.267-214.4c2.133-38.4-6.4-67.2-24.533-85.333
			C390.752,49.067,370.485,48,365.152,48h-179.2c0-9.6-6.4-17.067-14.933-19.2l-96-27.733c-6.4-2.133-12.8-1.067-18.133,3.2
			c-5.333,4.267-8.533,10.667-8.533,17.067v96c0,6.4,3.2,12.8,7.467,17.067c4.267,3.2,8.533,4.267,12.8,4.267
			c2.133,0,4.267-1.067,6.4,0l96-27.733c8.533-3.2,14.933-10.667,14.933-20.267h40.533v49.067c-51.2,9.6-90.667,55.467-90.667,108.8
			V480c0,11.733,9.6,21.333,21.333,21.333h180.267c11.733,0,21.333-9.6,20.267-21.333V248.534c0-53.333-38.4-98.133-88.533-108.8
			V90.667h97.067c0,0,6.4,0,12.8,6.4c8.533,9.6,12.8,27.733,11.733,53.333c-4.267,86.4,20.267,218.667,21.333,224
			c2.133,9.6,10.667,17.067,20.267,17.067c2.133,0,3.2,0,3.2-1.067C447.285,388.267,454.752,377.6,452.618,365.867z M144.352,74.667
			L89.952,89.6V48l54.4,16V74.667z M317.152,248.534v211.2H178.485v-211.2c0-38.4,30.933-69.333,69.333-69.333
			C286.218,179.2,317.152,210.134,317.152,248.534z"/>
	</g>
</g>
</svg>