<!DOCTYPE svg PUBLIC "-//W3C//DTD SVG 1.1//EN" "http://www.w3.org/Graphics/SVG/1.1/DTD/svg11.dtd">
<!-- Uploaded to: SVG Repo, www.svgrepo.com, Transformed by: SVG Repo Mixer Tools -->
<svg height="64px" width="64px" version="1.1" id="Layer_1" xmlns="http://www.w3.org/2000/svg" xmlns:xlink="http://www.w3.org/1999/xlink" viewBox="0 0 512 512" xml:space="preserve" fill="#000000">
<g id="SVGRepo_bgCarrier" stroke-width="0"/>
<g id="SVGRepo_tracerCarrier" stroke-linecap="round" stroke-linejoin="round"/>
<g id="SVGRepo_iconCarrier"> <polygon style="fill:#E04F5F;" points="59.52,512 59.52,212.384 256,70.896 452.48,212.384 452.48,512 "/> <polygon style="fill:#2C3E50;" points="256,0 20.016,168.768 20.016,207.168 256,38.384 491.984,207.168 491.984,168.768 "/> <g> <path style="fill:#FFFFFF;" d="M160.528,245.264h46.176v14.016h-29.008v17.248H204.8v13.888h-27.104v30.368h-17.152v-75.52H160.528 z"/> <path style="fill:#FFFFFF;" d="M288.688,282.24c0,24.768-15.008,39.776-37.072,39.776c-22.416,0-35.536-16.928-35.536-38.432 c0-22.64,14.448-39.568,36.752-39.568C276.032,244.032,288.688,261.408,288.688,282.24z M234.128,283.248 c0,14.8,6.944,25.216,18.368,25.216c11.552,0,18.16-10.992,18.16-25.664c0-13.568-6.496-25.216-18.272-25.216 C240.848,257.584,234.128,268.576,234.128,283.248z"/> <path style="fill:#FFFFFF;" d="M299.84,246.272c5.504-0.912,13.664-1.584,22.752-1.584c11.2,0,19.04,1.68,24.432,5.936 c4.48,3.6,6.944,8.864,6.944,15.808c0,9.632-6.832,16.256-13.328,18.592v0.336c5.264,2.128,8.176,7.168,10.08,14.112 c2.352,8.512,4.72,18.384,6.176,21.296h-17.488c-1.232-2.128-3.024-8.304-5.264-17.6c-2.016-9.408-5.264-11.984-12.224-12.112 h-5.152v29.696H299.84V246.272z M316.768,278.784h6.736c8.512,0,13.552-4.272,13.552-10.88c0-6.96-4.704-10.416-12.544-10.528 c-4.144,0-6.496,0.336-7.728,0.56v20.848H316.768z"/> <path style="fill:#FFFFFF;" d="M138.464,416.784c4.592,2.352,11.664,4.704,18.944,4.704c7.84,0,12-3.248,12-8.176 c0-4.72-3.6-7.408-12.672-10.656C144.192,398.288,136,391.344,136,380.352c0-12.896,10.768-22.752,28.576-22.752 c8.512,0,14.8,1.792,19.28,3.808l-3.808,13.776c-3.024-1.456-8.4-3.584-15.792-3.584c-7.408,0-10.992,3.36-10.992,7.28 c0,4.816,4.256,6.96,14,10.64c13.344,4.944,19.616,11.872,19.616,22.528c0,12.656-9.728,23.424-30.464,23.424 c-8.64,0-17.152-2.256-21.408-4.592L138.464,416.784z"/> <path style="fill:#FFFFFF;" d="M215.984,414.976l-5.376,19.392h-17.696l23.072-75.536H238.4l23.424,75.536H243.44l-5.824-19.392 H215.984z M235.152,402.208l-4.704-16.032c-1.36-4.48-2.704-10.08-3.808-14.56h-0.24c-1.104,4.48-2.24,10.192-3.472,14.56 l-4.48,16.032H235.152z"/> <path style="fill:#FFFFFF;" d="M271.856,358.832h17.152v61.184h30.032v14.336h-47.184L271.856,358.832L271.856,358.832z"/> <path style="fill:#FFFFFF;" d="M374.032,402.432h-27.776v17.936h31.024v14h-48.192v-75.536h46.624v14.016H346.24v15.68h27.776 v13.904H374.032z"/> </g> </g>
</svg>