<?xml version="1.0" encoding="iso-8859-1"?>
<!-- Uploaded to: SVG Repo, www.svgrepo.com, Generator: SVG Repo Mixer Tools -->
<!DOCTYPE svg PUBLIC "-//W3C//DTD SVG 1.1//EN" "http://www.w3.org/Graphics/SVG/1.1/DTD/svg11.dtd">
<svg fill="#000000" version="1.1" id="Capa_1" xmlns="http://www.w3.org/2000/svg" xmlns:xlink="http://www.w3.org/1999/xlink" 
	 width="800px" height="800px" viewBox="0 0 496.094 496.094"
	 xml:space="preserve">
<g>
	<g>
		<path d="M495.344,248.047L390.21,154.008v34.012h-82.137v-82.137h34.013L248.047,0.75l-94.039,105.134h34.012v82.137h-82.137
			v-34.012L0.75,248.047l105.134,94.039v-34.012h82.137v82.137h-34.012l94.038,105.133l94.039-105.134h-34.013v-82.138h82.137
			v34.013L495.344,248.047z M162.658,257.566h-46.909v-19.039h46.909V257.566z M238.527,300.473v-42.906h-42.906v-19.039h42.906
			v-42.907h19.04v42.907h42.906v19.039h-42.906v42.906H238.527z M257.566,333.436v46.909h-19.04v-46.909H257.566z M238.527,162.658
			v-46.909h19.04v46.909H238.527z M380.344,257.566h-46.909v-19.039h46.909V257.566z"/>
		<path d="M248.047,496.094l-0.373-0.417l-94.784-105.966h34.63v-81.137h-81.137v34.63L0,248.047l106.383-95.156v34.63h81.137
			v-81.137h-34.63L248.047,0l95.157,106.383h-34.631v81.137h81.137v-34.63l106.384,95.157L389.71,343.203v-34.631h-81.137v81.138
			h34.631L248.047,496.094z M155.127,390.711l92.92,103.883l92.921-103.884h-33.395v-83.138h83.137v33.395l103.884-92.92
			L390.71,155.126v33.394h-83.137v-83.137h33.395L248.047,1.5l-92.921,103.884h33.394v83.137h-83.137v-33.394L1.5,248.047
			l103.884,92.921v-33.394h83.137v83.137H155.127z M258.066,380.845h-20.04v-47.909h20.04V380.845z M239.027,379.845h18.04v-45.909
			h-18.04V379.845z M258.066,300.973h-20.04v-42.906h-42.906v-20.039h42.906v-42.907h20.04v42.907h42.906v20.039h-42.906V300.973z
			 M239.027,299.973h18.04v-42.906h42.906v-18.039h-42.906v-42.907h-18.04v42.907h-42.906v18.039h42.906V299.973z M380.844,258.066
			h-47.909v-20.039h47.909V258.066z M333.935,257.066h45.909v-18.039h-45.909V257.066z M163.158,258.066h-47.909v-20.039h47.909
			V258.066z M116.249,257.066h45.909v-18.039h-45.909V257.066z M258.066,163.158h-20.04v-47.909h20.04V163.158z M239.027,162.158
			h18.04v-45.909h-18.04V162.158z"/>
	</g>
</g>
</svg>