<?xml version="1.0" encoding="UTF-8"?>
<!DOCTYPE svg PUBLIC "-//W3C//DTD SVG 1.1//EN" "http://www.w3.org/Graphics/SVG/1.1/DTD/svg11.dtd">
<!-- Creator: CorelDRAW -->
<svg xmlns="http://www.w3.org/2000/svg" xml:space="preserve" width="3.4712mm" height="3.8946mm" version="1.1" style="shape-rendering:geometricPrecision; text-rendering:geometricPrecision; image-rendering:optimizeQuality; fill-rule:evenodd; clip-rule:evenodd"
viewBox="0 0 347.12 389.46"
 xmlns:xlink="http://www.w3.org/1999/xlink"
 xmlns:xodm="http://www.corel.com/coreldraw/odm/2003">
 <defs>
  <style type="text/css">
   <![CDATA[
    .fil0 {fill:none}
    .fil3 {fill:#FEFEFE;fill-rule:nonzero}
    .fil2 {fill:#E15967;fill-rule:nonzero}
    .fil1 {fill:#3E4B5A;fill-rule:nonzero}
   ]]>
  </style>
 </defs>
 <g id="Layer_x0020_1">
  <metadata id="CorelCorpID_0Corel-Layer"/>
  <g id="_2503608526448">
   <rect className="fil0" x="-4.23" y="-0" width="347.13" height="389.47"/>
   <g>
    <polygon className="fil1" points="169.34,21.58 9.73,135.73 9.73,161.71 169.34,47.54 328.94,161.71 328.94,135.73 "/>
    <polygon className="fil2" points="36.45,367.88 36.45,165.23 169.34,69.53 302.23,165.23 302.23,367.88 "/>
    <path className="fil3" d="M102.37 231.05l0 -48.83 33.47 0 0 8.26 -23.61 0 0 11.56 20.38 0 0 8.26 -20.38 0 0 20.75 -9.86 0zm39.6 -24.12c0,-4.97 0.76,-9.15 2.25,-12.53 1.1,-2.5 2.63,-4.72 4.54,-6.69 1.92,-1.97 4.02,-3.44 6.3,-4.39 3.04,-1.3 6.56,-1.93 10.54,-1.93 7.2,0 12.96,2.22 17.27,6.69 4.32,4.46 6.48,10.67 6.48,18.62 0,7.87 -2.14,14.04 -6.42,18.49 -4.29,4.46 -10.03,6.69 -17.21,6.69 -7.25,0 -13.03,-2.23 -17.31,-6.65 -4.29,-4.43 -6.44,-10.52 -6.44,-18.3zm10.18 -0.33c0,5.53 1.27,9.73 3.82,12.57 2.56,2.85 5.8,4.28 9.73,4.28 3.93,0 7.15,-1.42 9.69,-4.26 2.51,-2.82 3.77,-7.06 3.77,-12.72 0,-5.59 -1.22,-9.77 -3.67,-12.53 -2.46,-2.77 -5.73,-4.14 -9.79,-4.14 -4.06,0 -7.33,1.39 -9.82,4.18 -2.5,2.8 -3.73,7 -3.73,12.62zm44.92 24.45l0 -48.83 20.77 0c5.2,0 8.99,0.44 11.37,1.31 2.36,0.87 4.25,2.44 5.68,4.68 1.41,2.25 2.13,4.82 2.13,7.7 0,3.65 -1.08,6.69 -3.23,9.07 -2.14,2.38 -5.37,3.89 -9.67,4.52 2.13,1.24 3.89,2.6 5.28,4.09 1.4,1.48 3.27,4.13 5.61,7.92l5.97 9.54 -11.79 0 -7.14 -10.62c-2.53,-3.81 -4.25,-6.21 -5.18,-7.19 -0.95,-0.99 -1.93,-1.67 -2.98,-2.03 -1.04,-0.37 -2.69,-0.55 -4.95,-0.55l-2.01 0 0 20.39 -9.86 0zm9.86 -28.18l7.29 0c4.74,0 7.7,-0.19 8.88,-0.6 1.18,-0.4 2.09,-1.08 2.76,-2.07 0.66,-0.98 0.99,-2.2 0.99,-3.67 0,-1.64 -0.45,-2.96 -1.32,-3.99 -0.87,-1 -2.1,-1.64 -3.71,-1.89 -0.79,-0.12 -3.19,-0.17 -7.19,-0.17l-7.7 0 0 12.39z"/>
    <path className="fil3" d="M60.81 312.91l0 -48.44 9.86 0 0 40.23 24.52 0 0 8.21 -34.38 0zm41.42 0l0 -48.83 36.2 0 0 8.26 -26.34 0 0 10.83 24.51 0 0 8.22 -24.51 0 0 13.31 27.27 0 0 8.21 -37.13 0zm89.54 0l-10.74 0 -4.25 -11.1 -19.53 0 -4.02 11.1 -10.47 0 19.03 -48.83 10.43 0 19.55 48.83zm-18.16 -19.31l-6.73 -18.13 -6.6 18.13 13.33 0zm20.88 3.42l9.61 -0.93c0.56,3.23 1.74,5.59 3.5,7.1 1.76,1.51 4.16,2.26 7.16,2.26 3.17,0 5.57,-0.68 7.18,-2.01 1.6,-1.34 2.41,-2.92 2.41,-4.72 0,-1.14 -0.33,-2.13 -1,-2.94 -0.68,-0.81 -1.88,-1.53 -3.56,-2.13 -1.16,-0.4 -3.79,-1.1 -7.89,-2.12 -5.28,-1.32 -8.99,-2.93 -11.14,-4.84 -3,-2.69 -4.49,-5.96 -4.49,-9.82 0,-2.5 0.72,-4.82 2.13,-6.99 1.41,-2.16 3.44,-3.8 6.09,-4.95 2.65,-1.12 5.84,-1.68 9.59,-1.68 6.13,0 10.76,1.34 13.85,4.03 3.09,2.68 4.72,6.28 4.87,10.75l-9.84 0.44c-0.43,-2.51 -1.34,-4.31 -2.73,-5.41 -1.39,-1.1 -3.48,-1.65 -6.24,-1.65 -2.87,0 -5.11,0.58 -6.73,1.76 -1.05,0.76 -1.57,1.78 -1.57,3.04 0,1.14 0.49,2.13 1.47,2.96 1.24,1.04 4.26,2.13 9.07,3.27 4.8,1.14 8.33,2.3 10.64,3.5 2.3,1.22 4.1,2.86 5.39,4.97 1.3,2.1 1.95,4.69 1.95,7.77 0,2.8 -0.77,5.44 -2.32,7.87 -1.56,2.44 -3.75,4.26 -6.59,5.44 -2.84,1.19 -6.4,1.8 -10.64,1.8 -6.16,0 -10.92,-1.44 -14.23,-4.3 -3.3,-2.84 -5.3,-7 -5.94,-12.47zm48.02 15.89l0 -48.83 36.2 0 0 8.26 -26.34 0 0 10.83 24.51 0 0 8.22 -24.51 0 0 13.31 27.27 0 0 8.21 -37.13 0z"/>
   </g>
  </g>
 </g>
</svg>
