<?xml version="1.0" encoding="utf-8"?>
<!-- Svg Vector Icons : http://www.onlinewebfonts.com/icon -->
<!DOCTYPE svg PUBLIC "-//W3C//DTD SVG 1.1//EN" "http://www.w3.org/Graphics/SVG/1.1/DTD/svg11.dtd">
<svg version="1.1" xmlns="http://www.w3.org/2000/svg" xmlns:xlink="http://www.w3.org/1999/xlink" x="0px" y="0px" viewBox="0 0 256 256" enable-background="new 0 0 256 256" xml:space="preserve">
<metadata> Svg Vector Icons : http://www.onlinewebfonts.com/icon </metadata>
<g><g><g><path fill="#000000" d="M114.6,10c-16.2,1.8-35.5,8.6-49.3,17.3C35.1,46.5,15.1,78,10.7,113.2c-0.8,6.6-0.9,21-0.2,27.7c5.8,54.7,48.9,98.3,103.7,105c8.7,1.1,25.2,0.7,33-0.7c12.4-2.2,22.2-5.4,33-10.7c12.4-6.1,22-13.1,31.8-23c18.8-19.1,29.9-41.9,33.5-69.2c1-8.1,0.7-25.6-0.7-33.6c-4.6-27-16.9-49.7-37-68.4c-17.8-16.4-41-27.2-65.4-30.2C136.2,9.4,120.7,9.3,114.6,10z M142.2,18.1c20.1,2.6,38.9,10.6,55.3,23.4c8.9,6.9,19.4,18.9,25.5,28.9c10.9,18.1,16.1,36.5,16.1,57.6c0,14.4-2.2,26.8-7.1,39.4c-11.9,30.9-36.8,54.8-67.9,65.4c-12.1,4.1-22.8,5.8-36.1,5.8c-18,0-33.5-3.6-49.3-11.3c-21.4-10.6-38.5-27.2-49.5-48.4c-8.5-16.4-12.3-32.1-12.3-50.9c0-18.6,3.7-34.1,12.1-50.6C37.9,60,51.8,44.9,69.2,33.8c11.9-7.6,29-13.7,44.2-15.7C120,17.2,135.5,17.2,142.2,18.1z"/><path fill="#000000" d="M169.8,70.5c-0.8,0.2-2.5,1.2-3.6,2.1c-2.1,1.7-3,3.7-3,6.5c0,2.1-1.3,6.8-2.5,8.8c-1.4,2.4-5.1,5.9-7.7,7.2c-3.7,1.9-11.2,4.1-17,5c-8.4,1.4-13.1,3.6-17.4,8.1c-3.5,3.7-4.2,5.6-4.2,11.8c0,4.8,0.1,5.6,1.3,8.1c1.9,4.2,1.6,5.8-1.4,5.8c-1.4,0-1.6-0.2-2.9-2.9c-2.7-5.9-3.4-10.7-2.1-15.8c1.5-5.6,5.1-10.5,10.1-13.5c2.8-1.8,2.8-1.8,1.3-1.9c-2.3-0.2-11.2,1.5-14.7,2.9c-14.8,5.9-25.1,17.2-27.4,29.9c-1,5.6-0.6,14.7,0.7,20c1.7,6.6,4.1,9.7,9.1,12.1c4.8,2.3,6,2.4,41.4,2.4H163l3-1.4c3.8-1.9,6.4-4.1,8.8-7.7c6.3-9.7,6.1-25.8-0.6-35.6c-1.9-2.8-5.3-5.9-6.5-5.9c-0.6,0-2.1,5.2-4.2,14.6c-0.6,3-1.8,6.4-2.6,8.1c-2.1,4.2-6.1,8-10.5,10.1c-3.6,1.7-3.7,1.7-9.4,1.7c-5.6,0-5.9,0-9-1.5c-3.4-1.6-5.3-3.1-5.3-4.1c0-0.3,0.5-1.2,1.1-1.9l1.1-1.3l3.6,1.8c3.5,1.8,3.8,1.9,8.1,1.9c3.8,0,4.8-0.2,7.1-1.3c3.4-1.6,6.5-4.5,8-7.5c0.6-1.3,1.8-5.4,2.5-9.3c0.7-3.8,1.9-8.5,2.5-10.4c0.6-1.9,1.2-3.8,1.2-4.2c0-1.4,4-9,6.2-11.6c3.1-3.8,5-4.6,10-4.3c4.9,0.3,7-0.3,8.9-2.6c1.5-1.9,2.1-4.4,1.6-7.1c-0.6-2.9-4-6-7.4-6.7c-1.2-0.3-1.3-0.5-1.4-2.4C179.4,72.8,175,69.2,169.8,70.5z"/><path fill="#000000" d="M67.9,172.6c-0.5,0.5-0.5,1.6,0,4.5c0.5,3.6,0.6,3.9,2.5,5.7c3.7,3.7,0.1,3.4,57.6,3.4c37.1,0,51.7-0.1,52.8-0.5c4.1-1.4,6.3-4.7,6.5-9.6c0.1-2.4,0-3-0.8-3.6C185.2,171.6,68.7,171.6,67.9,172.6z"/></g></g></g>
</svg>