<?xml version="1.0" encoding="iso-8859-1"?>
<!-- Uploaded to: SVG Repo, www.svgrepo.com, Generator: SVG Repo Mixer Tools -->
<svg fill="#000000" height="800px" width="800px" version="1.1" id="Layer_1" xmlns="http://www.w3.org/2000/svg" xmlns:xlink="http://www.w3.org/1999/xlink" 
	 viewBox="0 0 512 512" xml:space="preserve">
<g>
	<g>
		<path d="M474.075,263.252V126.943H354.171c-14.255-26.697-39.99-44.914-69.672-49.595V50.072h64.427V19.656h-64.427V0h-30.416
			v19.656h-64.427v30.416h64.427v27.276c-29.683,4.681-55.417,22.897-69.672,49.595H19.796v91.009H184.41
			c16.643,31.168,48.926,50.796,84.88,50.796s68.238-19.628,84.88-50.796h28.895v45.3h-18.128v76.449h127.266v-76.449H474.075z
			 M334.244,187.536l-3.839,9.521c-10.109,25.073-34.099,41.274-61.115,41.274c-27.017,0-51.006-16.201-61.114-41.274l-3.84-9.521
			H50.212v-30.177h154.125l3.839-9.521c10.109-25.073,34.099-41.274,61.115-41.274c27.017,0,51.006,16.201,61.115,41.274
			l3.839,9.521h109.415v105.893h-30.177v-75.716H334.244z M461.788,309.285h-66.434v-15.617h66.434V309.285z"/>
	</g>
</g>
<g>
	<g>
		<path d="M462.023,394.16c-11.362-15.212-22.707-25.651-23.184-26.088l-10.268-9.399l-10.267,9.399
			c-0.478,0.437-11.822,10.876-23.182,26.088c-16.117,21.58-24.288,41.801-24.288,60.101c0,31.838,25.901,57.739,57.739,57.739
			s57.739-25.901,57.739-57.739C486.312,435.961,478.14,415.74,462.023,394.16z M428.571,481.584
			c-15.065,0-27.323-12.257-27.323-27.323c0-17.944,15.254-39.411,27.297-53.088c2.809,3.185,5.953,6.967,9.105,11.187
			c11.934,15.98,18.243,30.469,18.243,41.901C455.893,469.326,443.637,481.584,428.571,481.584z"/>
	</g>
</g>
</svg>