<?xml version="1.0" encoding="iso-8859-1"?>
<!-- Uploaded to: SVG Repo, www.svgrepo.com, Generator: SVG Repo Mixer Tools -->
<svg fill="#000000" height="800px" width="800px" version="1.1" id="Layer_1" xmlns="http://www.w3.org/2000/svg" xmlns:xlink="http://www.w3.org/1999/xlink" 
	 viewBox="0 0 488.1 488.1" xml:space="preserve">
<g transform="translate(0 -540.36)">
	<g>
		<g>
			<path d="M226.3,910.31l-19.6,19.6c-3.9,3.9-3.9,10.2,0,14.1c2,1.9,4.5,2.9,7.1,2.9c2.6,0,5.2-1,7-2.9l19.6-19.6
				c3.9-3.9,3.9-10.2,0-14.1C236.5,906.41,230.2,906.41,226.3,910.31z"/>
			<path d="M389.4,910.31l-19.6,19.6c-3.9,3.9-3.9,10.2,0,14.1c2,1.9,4.5,2.9,7.1,2.9c2.6,0,5.1-1,7-2.9l19.6-19.6
				c3.9-3.9,3.9-10.2,0-14.1C399.6,906.41,393.3,906.41,389.4,910.31z"/>
			<path d="M470.9,910.31l-19.6,19.6c-3.9,3.9-3.9,10.2,0,14.1c2,1.9,4.5,2.9,7.1,2.9c2.6,0,5.1-1,7-2.9l19.6-19.6
				c3.9-3.9,3.9-10.2,0-14.1C481.1,906.41,474.8,906.41,470.9,910.31z"/>
			<path d="M144.8,910.31l-19.6,19.6c-3.9,3.9-3.9,10.2,0,14.1c2,1.9,4.5,2.9,7.1,2.9c2.6,0,5.1-1,7-2.9l19.6-19.6
				c3.9-3.9,3.9-10.2,0-14.1C155,906.41,148.7,906.41,144.8,910.31z"/>
			<path d="M368.9,981.31l-19.6,20.4c-3.8,3.9-3.7,10.3,0.3,14.1c1.9,1.9,4.4,2.8,6.9,2.8v0c2.6,0,5.3-1,7.2-3.1l19.6-20.4
				c3.8-3.9,3.7-10.3-0.3-14.1C379.1,977.21,372.7,977.31,368.9,981.31z"/>
			<path d="M450.4,981.31l-19.6,20.4c-3.8,3.9-3.7,10.3,0.3,14.1c1.9,1.9,4.4,2.8,6.9,2.8v0c2.7,0,5.3-1,7.2-3.1l19.6-20.4
				c3.8-3.9,3.7-10.3-0.3-14.1C460.6,977.21,454.2,977.31,450.4,981.31z"/>
			<path d="M205.8,981.31l-19.6,20.4c-3.8,3.9-3.7,10.3,0.3,14.1c1.9,1.9,4.4,2.8,6.9,2.8v0c2.7,0,5.3-1,7.2-3.1l19.6-20.4
				c3.8-3.9,3.7-10.3-0.3-14.1C216,977.21,209.6,977.31,205.8,981.31z"/>
			<path d="M324.1,948.31l-34.7,5.5l34.1-40.6c3.6-4.2,3-10.5-1.2-14.1s-10.5-3-14.1,1.2l-51.4,61.2c-2.6,3.2-3.1,7.8-1,11.4
				c2.1,3.6,6.2,5.6,10.3,4.9l34.7-5.6l-33.4,39.8c-3.6,4.2-3,10.6,1.2,14.1c1.9,1.5,4.1,2.3,6.4,2.3v0c2.8,0,5.7-1.2,7.8-3.5
				l50.6-60.3c2.6-3.2,3.1-7.8,1-11.4C332.3,949.61,328.2,947.61,324.1,948.31z"/>
			<path d="M124.3,981.31l-19.6,20.4c-3.8,3.9-3.7,10.3,0.3,14.1c1.9,1.9,4.4,2.8,6.9,2.8l0,0c2.6,0,5.3-1,7.2-3.1l19.6-20.4
				c3.8-3.9,3.7-10.3-0.3-14.1C134.5,977.21,128.1,977.31,124.3,981.31z"/>
			<path d="M396.6,885.71c51.3,0,91.5-40.2,91.5-91.5c-0.1-24.5-9.5-47.4-26.6-64.6l0,0c-17.2-17.3-40.3-26.9-65-26.9
				c-0.3,0-0.6,0-0.8,0c-6.3,0.5-14.9,1.5-23.5,4c-9.7-18.1-23.8-33.5-41.1-45c-20-13.2-43.1-20.2-66.7-20.2
				c-16.4,0-32,3.2-46.3,9.1c-8-14.1-20.1-25.3-34.6-32.1c-17.4-8.1-37.1-9.3-55.6-3.5c-18.4,5.4-34.2,17.5-44.4,34
				c-10.1,16.3-14.2,35.9-11.5,55.3c5.2,37,34.8,65.6,70.4,69.3c4.9,62.7,57.8,112.1,122.1,112.1H396.6z M142.3,753.51
				c-25.7-3.7-46.9-24.8-50.6-52c-4.3-30.6,13.3-58.9,41.8-67.3c0.1,0,0.1,0,0.2-0.1c26.2-8.3,53,2.4,66.5,25.6
				C168,679.61,145.7,713.81,142.3,753.51z M161.9,764.01c0-56.5,46-102.5,102.5-102.5c39.7,0,77.3,24.8,93.6,61.7
				c1.1,2.4,3.1,4.4,5.6,5.3c2.5,0.9,5.3,0.9,7.7-0.2c8.3-3.8,18.5-5,25.6-5.6c39.3,0.2,71.1,32.2,71.1,71.5
				c0,40.1-31.4,71.5-71.5,71.5h0H264.4C207.9,865.71,161.9,820.11,161.9,764.01z"/>
			<path d="M151.9,590.61c5.5,0,10-4.5,10-10v-30.2c0-5.5-4.5-10-10-10s-10,4.5-10,10v30.2C141.9,586.11,146.4,590.61,151.9,590.61z
				"/>
			<path d="M63.2,617.81c2,1.9,4.5,2.9,7.1,2.9s5.2-0.9,7-2.9c3.9-3.9,3.9-10.2,0-14.1l-19.6-19.6c-3.9-3.9-10.2-3.9-14.1,0
				c-3.9,3.9-3.9,10.2,0,14.1L63.2,617.81z"/>
			<path d="M63.3,767.61l-19.6,19.6c-3.9,3.9-3.9,10.2,0,14.1c2,1.9,4.5,2.9,7.1,2.9c2.5,0,5.1-1,7-2.9l19.6-19.6
				c3.9-3.9,3.9-10.2,0-14.1C73.5,763.71,67.2,763.71,63.3,767.61z"/>
			<path d="M50.2,682.51c0-5.5-4.5-10-10-10H10c-5.5,0-10,4.5-10,10s4.5,10,10,10h30.2C45.7,692.51,50.2,688.01,50.2,682.51z"/>
			<path d="M233.4,620.71c2.5,0,5-0.9,6.9-2.8l20.4-19.6c4-3.8,4.1-10.1,0.3-14.1s-10.1-4.1-14.1-0.3l-20.4,19.6
				c-4,3.8-4.1,10.1-0.3,14.1C228.1,619.71,230.8,620.71,233.4,620.71z"/>
		</g>
	</g>
</g>
</svg>