<!DOCTYPE svg PUBLIC "-//W3C//DTD SVG 1.1//EN" "http://www.w3.org/Graphics/SVG/1.1/DTD/svg11.dtd">
<!-- Uploaded to: SVG Repo, www.svgrepo.com, Transformed by: SVG Repo Mixer Tools -->
<svg height="64px" width="64px" version="1.1" id="Layer_1" xmlns="http://www.w3.org/2000/svg" xmlns:xlink="http://www.w3.org/1999/xlink" viewBox="0 0 512 512" xml:space="preserve" fill="#000000">
<g id="SVGRepo_bgCarrier" stroke-width="0"/>
<g id="SVGRepo_tracerCarrier" stroke-linecap="round" stroke-linejoin="round"/>
<g id="SVGRepo_iconCarrier"> <path style="fill:#E54728;" d="M452.064,487.193H59.936c-26.23,0-47.493-21.264-47.493-47.493V301.395 c0-26.23,21.264-47.493,47.493-47.493h392.128c26.23,0,47.493,21.264,47.493,47.493v138.306 C499.557,465.93,478.293,487.193,452.064,487.193z"/> <g> <path style="fill:#F95428;" d="M59.936,459.819c-11.094,0-20.119-9.025-20.119-20.119V301.394c0-11.094,9.025-20.119,20.119-20.119 h392.128c11.094,0,20.119,9.025,20.119,20.119V439.7c0,11.094-9.025,20.119-20.119,20.119H59.936z"/> <circle style="fill:#F95428;" cx="256" cy="57.936" r="33.128"/> </g> <g> <path style="fill:#FFFFFF;" d="M128.376,336.12h3.569c4.094,0,7.423,3.33,7.423,7.423c0,6.872,5.571,12.443,12.443,12.443 c6.872,0,12.443-5.571,12.443-12.443c0-17.814-14.493-32.309-32.309-32.309h-3.569c-19.783,0-35.878,16.095-35.878,35.878 s16.095,35.878,35.878,35.878c6.061,0,10.992,4.931,10.992,10.992c0,6.061-4.931,10.991-10.992,10.991h-3.569 c-4.094,0-7.423-3.33-7.423-7.422c0-6.872-5.571-12.443-12.443-12.443c-6.872,0-12.443,5.571-12.443,12.443 c0,17.814,14.493,32.308,32.309,32.308h3.569c19.783,0,35.878-16.095,35.878-35.877s-16.095-35.878-35.878-35.878 c-6.061,0-10.992-4.931-10.992-10.992C117.384,341.052,122.315,336.12,128.376,336.12z"/> <path style="fill:#FFFFFF;" d="M326.9,391.935c-6.872,0-12.443,5.571-12.443,12.443v0.596h-21.983v-81.297 c0-6.872-5.571-12.443-12.443-12.443c-6.872,0-12.443,5.571-12.443,12.443v93.738c0,6.872,5.571,12.443,12.443,12.443H326.9 c6.872,0,12.443-5.571,12.443-12.443v-13.039C339.342,397.506,333.772,391.935,326.9,391.935z"/> <path style="fill:#FFFFFF;" d="M407.059,351.741c6.872,0,12.443-5.571,12.443-12.443v-15.621c0-6.872-5.571-12.443-12.443-12.443 h-46.87c-6.872,0-12.443,5.571-12.443,12.443v93.738c0,6.872,5.571,12.443,12.443,12.443h46.87c6.872,0,12.443-5.571,12.443-12.443 v-13.039c0-6.872-5.571-12.443-12.443-12.443s-12.443,5.571-12.443,12.443v0.596h-21.984V382.99h13.997 c6.872,0,12.443-5.571,12.443-12.443s-5.571-12.443-12.443-12.443h-13.997V336.12h21.984v3.178 C394.616,346.171,400.187,351.741,407.059,351.741z"/> <path style="fill:#FFFFFF;" d="M213.433,311.842c-19.616,0-35.574,15.958-35.574,35.574v69.395c0,6.872,5.571,12.443,12.443,12.443 c6.872,0,12.443-5.571,12.443-12.443v-18.797h21.377v18.797c0,6.872,5.571,12.443,12.443,12.443 c6.872,0,12.443-5.571,12.443-12.443v-69.395C249.007,327.8,233.048,311.842,213.433,311.842z M202.744,373.127v-25.711 c0-5.893,4.795-10.688,10.688-10.688c5.894,0,10.688,4.795,10.688,10.688v25.711H202.744z"/> </g> <path style="fill:#F9A493;" d="M462.228,375.787c-6.872,0-12.443-5.571-12.443-12.443v-59.88 c-5.783-1.07-10.165-6.141-10.165-12.235c0-6.872,5.571-12.443,12.443-12.443c12.467,0,22.607,10.141,22.607,22.608v61.951 C474.671,370.216,469.101,375.787,462.228,375.787z M452.064,303.672h0.012H452.064z"/> <path style="fill:#333333;" d="M452.064,241.457h-40.596L292.454,85.248c5.721-7.616,9.117-17.075,9.117-27.313 c0-25.127-20.444-45.571-45.571-45.571s-45.571,20.442-45.571,45.571c0,10.24,3.397,19.701,9.121,27.318L100.53,241.457H59.936 C26.887,241.457,0,268.345,0,301.394V439.7c0,33.05,26.887,59.936,59.936,59.936h392.128c33.05,0,59.936-26.887,59.936-59.936 V301.394C512,268.345,485.113,241.457,452.064,241.457z M256,37.251c11.406,0,20.685,9.279,20.685,20.685S267.405,78.621,256,78.621 c-11.405,0-20.685-9.28-20.685-20.685S244.594,37.251,256,37.251z M239.341,100.339c5.164,2.036,10.779,3.167,16.659,3.167 c5.881,0,11.498-1.132,16.664-3.169l107.518,141.121H131.816L239.341,100.339z M487.114,439.7c0,19.326-15.724,35.05-35.05,35.05 H59.936c-19.326,0-35.05-15.724-35.05-35.05V301.394c0-19.326,15.724-35.05,35.05-35.05h392.128c19.326,0,35.05,15.724,35.05,35.05 V439.7z"/> </g>
</svg>