<?xml version="1.0" encoding="utf-8"?>
<!-- Uploaded to: SVG Repo, www.svgrepo.com, Generator: SVG Repo Mixer Tools -->
<svg width="800px" height="800px" viewBox="0 0 32 32" fill="none" xmlns="http://www.w3.org/2000/svg">
<g clip-path="url(#clip0_901_1519)">
<path d="M21 17H30C30.553 17 31 16.553 31 16V6C31 5.447 30.553 5 30 5H18V2C18 1.447 17.553 1 17 1H15C14.447 1 14 1.447 14 2V12M22 31H18V8M12 31H14V15H2C1.447 15 1 14.553 1 14V4C1 3.447 1.447 3 2 3H11M6 9H9M23 11H26" stroke="#000000" stroke-width="2" stroke-linecap="round" stroke-linejoin="round"/>
</g>
<defs>
<clipPath id="clip0_901_1519">
<rect width="32" height="32" fill="white"/>
</clipPath>
</defs>
</svg>